<svg xmlns="http://www.w3.org/2000/svg" width="60" height="60" viewBox="0 0 60 60">
  <g id="add_plus" data-name="add, plus" transform="translate(-14 -14)">
    <rect id="Rectangle_152046" data-name="Rectangle 152046" width="57.005" height="57.005" rx="21" transform="translate(15.497 15.497)" fill="#a7e34f"/>
    <path id="Path_85172" data-name="Path 85172" d="M54.32,16H35.16C24.578,16,16,25.025,16,36.158v6.3C16,31.325,24.578,22.3,35.16,22.3H54.32c10.582,0,19.16,9.025,19.16,20.158v-6.3C73.48,25.025,64.9,16,54.32,16Z" transform="translate(-0.74 -0.74)" fill="#bae97f"/>
    <path id="Path_85173" data-name="Path 85173" d="M44.421,87.218c-26.936,0-25.95-6.142-27.891-7.858,1.669,9.569,9.593,16.519,18.837,16.52H54.522c10.579,0,19.155-9.025,19.155-20.158V68.438S72.367,87.218,44.421,87.218Z" transform="translate(-0.936 -23.14)" fill="#80c31b"/>
    <path id="Path_85174" data-name="Path 85174" d="M44.421,87.218c-26.936,0-25.951-6.142-27.891-7.858.1.563.218,1.116.359,1.661,1.574,2.11,2.4,7.457,27.535,7.457,27.943,0,29.253-18.78,29.253-18.78v-1.26S72.367,87.218,44.421,87.218Z" transform="translate(-0.936 -23.14)" fill="#c7f478"/>
    <path id="Path_85175" data-name="Path 85175" d="M53.6,74H34.4A20.423,20.423,0,0,1,14,53.6V34.4A20.423,20.423,0,0,1,34.4,14H53.6A20.423,20.423,0,0,1,74,34.4V53.6A20.423,20.423,0,0,1,53.6,74ZM34.4,16.4a18.02,18.02,0,0,0-18,18V53.6a18.02,18.02,0,0,0,18,18H53.6a18.02,18.02,0,0,0,18-18V34.4a18.02,18.02,0,0,0-18-18Z" fill="#5a8909"/>
    <circle id="Ellipse_2202" data-name="Ellipse 2202" cx="1.782" cy="1.782" r="1.782" transform="translate(34.517 19.374)" fill="#eaffbb"/>
    <circle id="Ellipse_2203" data-name="Ellipse 2203" cx="1.782" cy="1.782" r="1.782" transform="translate(62.773 53.313)" fill="#eaffbb"/>
    <circle id="Ellipse_2204" data-name="Ellipse 2204" cx="2.648" cy="2.648" r="2.648" transform="translate(58.06 58.811)" fill="#eaffbb"/>
    <path id="Path_85176" data-name="Path 85176" d="M36.331,26.135c-.711-.973-3.013.344-4.936.63-3.9.575-4.73,2.864-3.869,4.95s3.489,1.251,4.592.014a20.254,20.254,0,0,1,3.721-3.4C37.14,27.477,36.662,26.588,36.331,26.135Z" transform="translate(-4.891 -4.36)" fill="#eaffbb"/>
    <path id="Path_85177" data-name="Path 85177" d="M63.053,47.541H57.48V41.969a4.97,4.97,0,1,0-9.939,0v5.573H41.969a4.969,4.969,0,0,0,0,9.939h5.573v5.573a4.97,4.97,0,1,0,9.939,0V57.48h5.573a4.969,4.969,0,0,0,0-9.939Z" transform="translate(-8.511 -8.511)" fill="#eaffbb"/>
    <path id="Path_85178" data-name="Path 85178" d="M51.771,68.542a6.159,6.159,0,0,1-6.159-6.16V57.93H41.159a6.159,6.159,0,0,1,0-12.318h4.453V41.159a6.159,6.159,0,0,1,12.318,0v4.453h4.453a6.159,6.159,0,0,1,0,12.318H57.93v4.453A6.166,6.166,0,0,1,51.771,68.542ZM41.16,47.925a3.846,3.846,0,1,0,0,7.692h5.61a1.157,1.157,0,0,1,1.157,1.157v5.61a3.846,3.846,0,1,0,7.692,0v-5.61a1.157,1.157,0,0,1,1.157-1.157h5.61a3.846,3.846,0,0,0,0-7.692h-5.61a1.157,1.157,0,0,1-1.157-1.157v-5.61a3.846,3.846,0,1,0-7.692,0v5.61a1.157,1.157,0,0,1-1.157,1.157Z" transform="translate(-7.771 -7.771)" fill="#5a8909"/>
  </g>
</svg>
