<svg xmlns="http://www.w3.org/2000/svg" width="30" height="30" viewBox="0 0 30 30">
  <g id="arrow_left_caret" data-name="arrow, left, caret" transform="translate(30) rotate(90)">
    <rect id="Rectangle_152040" data-name="Rectangle 152040" width="27.4" height="27.4" rx="8" transform="translate(1.3 1.3)" fill="#a7e34f"/>
    <path id="Path_85144" data-name="Path 85144" d="M35.131,16H25.565C20.283,16,16,20.671,16,26.432v3.26c0-5.761,4.283-10.432,9.565-10.432h9.565c5.283,0,9.565,4.671,9.565,10.432v-3.26C44.7,20.671,40.413,16,35.131,16Z" transform="translate(-15.348 -15.348)" fill="#bae97f"/>
    <path id="Path_85145" data-name="Path 85145" d="M30.451,78.157c-13.444,0-12.952-3.178-13.921-4.066.833,4.952,4.788,8.548,9.4,8.549h9.561c5.28,0,9.561-4.671,9.561-10.432V68.438S44.4,78.157,30.451,78.157Z" transform="translate(-15.705 -53.291)" fill="#80c31b"/>
    <path id="Path_85146" data-name="Path 85146" d="M30.451,78.157c-13.444,0-12.953-3.178-13.921-4.066.049.291.109.578.179.86.786,1.092,1.2,3.859,13.743,3.859,13.947,0,14.6-9.719,14.6-9.719v-.652S44.4,78.157,30.451,78.157Z" transform="translate(-15.705 -53.291)" fill="#c7f478"/>
    <path id="Path_85147" data-name="Path 85147" d="M33.8,44H24.2A10.211,10.211,0,0,1,14,33.8V24.2A10.211,10.211,0,0,1,24.2,14h9.6A10.211,10.211,0,0,1,44,24.2v9.6A10.211,10.211,0,0,1,33.8,44ZM24.2,15.2a9.01,9.01,0,0,0-9,9v9.6a9.01,9.01,0,0,0,9,9h9.6a9.01,9.01,0,0,0,9-9V24.2a9.01,9.01,0,0,0-9-9Z" transform="translate(-14 -14)" fill="#5a8909"/>
    <circle id="Ellipse_2196" data-name="Ellipse 2196" cx="0.922" cy="0.922" r="0.922" transform="translate(10.236 2.781)" fill="#eaffbb"/>
    <circle id="Ellipse_2197" data-name="Ellipse 2197" cx="0.922" cy="0.922" r="0.922" transform="translate(24.19 19.613)" fill="#eaffbb"/>
    <circle id="Ellipse_2198" data-name="Ellipse 2198" cx="1.37" cy="1.37" r="1.37" transform="translate(21.955 22.33)" fill="#eaffbb"/>
    <path id="Path_85148" data-name="Path 85148" d="M31.934,25.964c-.368-.5-1.559.178-2.554.326-2.016.3-2.448,1.482-2,2.561s1.805.647,2.377.007A10.481,10.481,0,0,1,31.68,27.1C32.353,26.659,32.105,26.2,31.934,25.964Z" transform="translate(-22.909 -21.941)" fill="#eaffbb"/>
    <path id="Path_85149" data-name="Path 85149" d="M43.438,45.759l9.4-5.428a2.393,2.393,0,0,1,3.59,2.073V53.26a2.393,2.393,0,0,1-3.59,2.072l-9.4-5.428a2.393,2.393,0,0,1,0-4.145Z" transform="translate(-34.335 -32.831)" fill="#eaffbb"/>
    <path id="Path_85150" data-name="Path 85150" d="M52.687,52.359a3.465,3.465,0,0,1-1.522-.35l-9.4-4.594a2.4,2.4,0,0,1,0-4.465h0l9.4-4.6a3.529,3.529,0,0,1,3.045,0,2.537,2.537,0,0,1,1.522,2.233v9.191A2.851,2.851,0,0,1,52.687,52.359ZM42.416,43.907a1.371,1.371,0,0,0,0,2.553l9.4,4.595a2.018,2.018,0,0,0,1.741,0,1.45,1.45,0,0,0,.871-1.276V40.588a1.451,1.451,0,0,0-.871-1.276,2.018,2.018,0,0,0-1.741,0Z" transform="translate(-32.987 -30.183)" fill="#5a8909"/>
  </g>
</svg>
