<svg xmlns="http://www.w3.org/2000/svg" width="55.2" height="55.746" viewBox="0 0 55.2 55.746">
  <g id="refresh_reload" data-name="refresh, reload" transform="translate(0)">
    <rect id="Rectangle_150865" data-name="Rectangle 150865" width="53.322" height="55.746" rx="20" transform="translate(0.939)" fill="#faad29"/>
    <path id="Path_79664" data-name="Path 79664" d="M43.509,84.894c24.84,0,23.931-5.382,25.72-6.886A17.664,17.664,0,0,1,51.858,92.484H34.194A17.664,17.664,0,0,1,16.53,74.82V68.438S17.737,84.894,43.509,84.894Z" transform="translate(-15.426 -38.116)" fill="#e6691b"/>
    <path id="Path_79666" data-name="Path 79666" d="M32.768,69.2H50.432A18.789,18.789,0,0,0,69.2,50.432V32.768A18.789,18.789,0,0,0,50.432,14H32.768A18.789,18.789,0,0,0,14,32.768V50.432A18.789,18.789,0,0,0,32.768,69.2ZM50.432,16.208a16.579,16.579,0,0,1,16.56,16.56V50.432a16.579,16.579,0,0,1-16.56,16.56H32.768a16.579,16.579,0,0,1-16.56-16.56V32.768a16.579,16.579,0,0,1,16.56-16.56Z" transform="translate(-14 -13.727)" fill="#e6691b"/>
    <ellipse id="Ellipse_2186" data-name="Ellipse 2186" cx="1.561" cy="1.561" rx="1.561" ry="1.561" transform="translate(33.146 4.982)" fill="#eaffbb"/>
    <ellipse id="Ellipse_2187" data-name="Ellipse 2187" cx="1.561" cy="1.561" rx="1.561" ry="1.561" transform="translate(6.716 36.549)" fill="#eaffbb"/>
    <ellipse id="Ellipse_2188" data-name="Ellipse 2188" cx="2.32" cy="2.32" rx="2.32" ry="2.32" transform="translate(9.838 41.689)" fill="#eaffbb"/>
    <path id="Path_79667" data-name="Path 79667" d="M27.539,26.091c.623-.853,2.64.3,4.325.552,3.414.5,4.144,2.51,3.39,4.337s-3.057,1.1-4.024.013a17.748,17.748,0,0,0-3.261-2.981C26.83,27.267,27.249,26.488,27.539,26.091Z" transform="translate(12.379 -19.005)" fill="#eaffbb"/>
    <path id="Path_85142" data-name="Path 85142" d="M49.737,42.629v3.256h9.591a2.62,2.62,0,0,1,2.62,2.62v5.24a2.62,2.62,0,0,1-2.62,2.62H49.737v3.256a2.62,2.62,0,0,1-4.473,1.853l-8.5-8.5a2.62,2.62,0,0,1,0-3.707l8.5-8.495a2.62,2.62,0,0,1,4.473,1.852Z" transform="translate(-21.375 -25.066)" fill="#eaffbb"/>
    <path id="Path_85143" data-name="Path 85143" d="M46.018,62.1a3.6,3.6,0,0,0,1.38-.278,3.492,3.492,0,0,0,2.19-3.277v-2.33h8.665A3.551,3.551,0,0,0,61.8,52.672v-5.24a3.551,3.551,0,0,0-3.547-3.546H49.588V41.556a3.547,3.547,0,0,0-6.055-2.508l-8.5,8.5a3.552,3.552,0,0,0,0,5.016l8.5,8.5A3.5,3.5,0,0,0,46.018,62.1ZM58.251,45.738a1.7,1.7,0,0,1,1.695,1.693v5.24a1.7,1.7,0,0,1-1.694,1.693H48.661a.927.927,0,0,0-.927.927v3.256a1.694,1.694,0,0,1-2.891,1.2l-8.5-8.5a1.7,1.7,0,0,1,0-2.395l8.5-8.5a1.694,1.694,0,0,1,2.891,1.2v3.256a.927.927,0,0,0,.927.927Z" transform="translate(-20.299 -23.993)" fill="#e6691b"/>
  </g>
</svg>
