<svg xmlns="http://www.w3.org/2000/svg" width="70.822" height="71.523" viewBox="0 0 70.822 71.523">
  <g id="refresh_reload" data-name="refresh, reload" transform="translate(-14 -13.775)">
    <rect id="Rectangle_150865" data-name="Rectangle 150865" width="68.413" height="71.523" rx="27" transform="translate(15.204 13.775)" fill="#faad29"/>
    <path id="Path_79664" data-name="Path 79664" d="M49.529,89.551c-31.87,0-30.7-6.905-33-8.834A22.663,22.663,0,0,0,38.818,99.289H61.48A22.663,22.663,0,0,0,84.143,76.626V68.438S82.594,89.551,49.529,89.551Z" transform="translate(-0.738 -15.759)" fill="#e6691b"/>
    <path id="Path_79666" data-name="Path 79666" d="M60.742,84.822H38.079A24.106,24.106,0,0,1,14,60.742V38.079A24.106,24.106,0,0,1,38.079,14H60.742A24.106,24.106,0,0,1,84.822,38.079V60.742A24.106,24.106,0,0,1,60.742,84.822ZM38.079,16.833A21.271,21.271,0,0,0,16.833,38.079V60.742A21.271,21.271,0,0,0,38.079,81.989H60.742A21.271,21.271,0,0,0,81.989,60.742V38.079A21.271,21.271,0,0,0,60.742,16.833Z" transform="translate(0 0.125)" fill="#e6691b"/>
    <circle id="Ellipse_2186" data-name="Ellipse 2186" cx="2.003" cy="2.003" r="2.003" transform="translate(38.29 20.167)" fill="#eaffbb"/>
    <circle id="Ellipse_2187" data-name="Ellipse 2187" cx="2.003" cy="2.003" r="2.003" transform="translate(72.2 60.668)" fill="#eaffbb"/>
    <circle id="Ellipse_2188" data-name="Ellipse 2188" cx="2.977" cy="2.977" r="2.977" transform="translate(66.246 67.262)" fill="#eaffbb"/>
    <path id="Path_79667" data-name="Path 79667" d="M37.463,26.178c-.8-1.094-3.387.387-5.549.708-4.38.647-5.317,3.22-4.349,5.564s3.922,1.407,5.163.016a22.77,22.77,0,0,1,4.183-3.824C38.373,27.688,37.835,26.688,37.463,26.178Z" transform="translate(-3.857 -3.313)" fill="#eaffbb"/>
    <path id="Path_83124" data-name="Path 83124" d="M65.864,57.242,70.7,52.408a6.1,6.1,0,1,0-8.621-8.623L57.242,48.62l-4.834-4.834a6.1,6.1,0,1,0-8.621,8.623l4.834,4.834-4.834,4.834A6.1,6.1,0,1,0,52.407,70.7l4.834-4.834L62.076,70.7A6.1,6.1,0,1,0,70.7,62.076Z" transform="translate(-7.833 -10.046)" fill="#eaffbb"/>
    <path id="Path_83125" data-name="Path 83125" d="M65.773,73.255a7.435,7.435,0,0,1-5.291-2.191l-3.854-3.855-3.854,3.855A7.483,7.483,0,0,1,42.191,60.482l3.854-3.854-3.853-3.853A7.483,7.483,0,1,1,52.773,42.191l3.854,3.855,3.854-3.855A7.483,7.483,0,1,1,71.064,52.774l-3.854,3.853,3.853,3.854a7.482,7.482,0,0,1-5.29,12.773Zm-9.145-9.391a1.385,1.385,0,0,1,.979.406L62.441,69.1A4.711,4.711,0,1,0,69.1,62.441L64.27,57.607a1.386,1.386,0,0,1,0-1.959L69.1,50.814a4.711,4.711,0,0,0-6.662-6.663l-4.834,4.834a1.386,1.386,0,0,1-1.959,0l-4.834-4.834a4.711,4.711,0,0,0-6.662,6.663l4.834,4.834a1.386,1.386,0,0,1,0,1.959l-4.834,4.834A4.711,4.711,0,0,0,50.813,69.1l4.834-4.834a1.386,1.386,0,0,1,.98-.406Z" transform="translate(-7.217 -9.432)" fill="#e6691b"/>
  </g>
</svg>
