<svg id="refresh_reload" data-name="refresh, reload" xmlns="http://www.w3.org/2000/svg" width="60" height="60" viewBox="0 0 60 60">
  <rect id="Rectangle_150865" data-name="Rectangle 150865" width="57.986" height="60" rx="22" transform="translate(1.008)" fill="#faad29"/>
  <path id="Path_79664" data-name="Path 79664" d="M45.873,86.1c27.016,0,26.028-5.775,27.974-7.388A19.143,19.143,0,0,1,54.953,94.24H35.742A19.084,19.084,0,0,1,16.53,75.286V68.438S17.843,86.1,45.873,86.1Z" transform="translate(-15.345 -35.718)" fill="#e6691b"/>
  <path id="Path_79666" data-name="Path 79666" d="M34.4,73.414H53.6A20.324,20.324,0,0,0,74,53.213V34.2A20.324,20.324,0,0,0,53.6,14H34.4A20.324,20.324,0,0,0,14,34.2V53.213a20.324,20.324,0,0,0,20.4,20.2ZM53.6,16.377A17.933,17.933,0,0,1,71.6,34.2V53.213a17.933,17.933,0,0,1-18,17.824H34.4a17.933,17.933,0,0,1-18-17.824V34.2a17.933,17.933,0,0,1,18-17.824Z" transform="translate(-14 -13.707)" fill="#e6691b"/>
  <ellipse id="Ellipse_2186" data-name="Ellipse 2186" cx="1.675" cy="1.675" rx="1.675" ry="1.675" transform="translate(36.056 5.346)" fill="#eaffbb"/>
  <ellipse id="Ellipse_2187" data-name="Ellipse 2187" cx="1.675" cy="1.675" rx="1.675" ry="1.675" transform="translate(7.206 39.346)" fill="#eaffbb"/>
  <ellipse id="Ellipse_2188" data-name="Ellipse 2188" cx="2.489" cy="2.489" rx="2.489" ry="2.489" transform="translate(10.706 44.882)" fill="#eaffbb"/>
  <path id="Path_79667" data-name="Path 79667" d="M27.562,26.114c.668-.915,2.833.323,4.641.592,3.663.541,4.447,2.693,3.637,4.654s-3.28,1.176-4.318.014a19.043,19.043,0,0,0-3.5-3.2C26.8,27.376,27.251,26.54,27.562,26.114Z" transform="translate(16.04 -18.51)" fill="#eaffbb"/>
  <path id="Path_85161" data-name="Path 85161" d="M42.667,49.706V67.82A1.637,1.637,0,0,0,44.3,69.457H67.214A1.637,1.637,0,0,0,68.85,67.82V49.706a1.635,1.635,0,0,0-.722-1.355L55.759,40l-12.37,8.346A1.636,1.636,0,0,0,42.667,49.706Z" transform="translate(-25.027 -27.988)" fill="#eaffbb"/>
  <path id="Path_85162" data-name="Path 85162" d="M66.441,69.911H43.53a2.867,2.867,0,0,1-2.863-2.864V48.933a2.86,2.86,0,0,1,1.262-2.377L54.3,38.21a1.227,1.227,0,0,1,1.373,0l12.37,8.352A2.857,2.857,0,0,1,69.3,48.932V67.047a2.867,2.867,0,0,1-2.863,2.864Zm-11.456-29.2L43.3,48.591a.407.407,0,0,0-.18.34V67.047a.409.409,0,0,0,.409.409H66.441a.409.409,0,0,0,.409-.409V48.933a.407.407,0,0,0-.18-.337Z" transform="translate(-24.254 -27.215)" fill="#e6691b"/>
  <path id="Path_85163" data-name="Path 85163" d="M56.667,73.637A1.637,1.637,0,0,1,58.3,72h5.728a1.637,1.637,0,0,1,1.636,1.637v8.182h-9Z" transform="translate(-30.436 -40.35)" fill="#e6691b"/>
</svg>
