<svg xmlns="http://www.w3.org/2000/svg" width="60" height="60" viewBox="0 0 60 60">
  <g id="refresh_reload" data-name="refresh, reload" transform="translate(-14 -14.071)">
    <rect id="Rectangle_150865" data-name="Rectangle 150865" width="57.966" height="58.099" rx="22" transform="translate(15.017 14.775)" fill="#faad29"/>
    <path id="Path_79664" data-name="Path 79664" d="M44.491,86.27c-27,0-26.016-5.832-27.961-7.461A19.186,19.186,0,0,0,35.415,94.5h19.2a19.172,19.172,0,0,0,19.2-19.141V68.438S72.508,86.27,44.491,86.27Z" transform="translate(-1.016 -21.621)" fill="#e6691b"/>
    <path id="Path_79666" data-name="Path 79666" d="M53.6,74H34.4A20.423,20.423,0,0,1,14,53.6V34.4A20.423,20.423,0,0,1,34.4,14H53.6A20.423,20.423,0,0,1,74,34.4V53.6A20.423,20.423,0,0,1,53.6,74ZM34.4,16.4a18.02,18.02,0,0,0-18,18V53.6a18.02,18.02,0,0,0,18,18H53.6a18.02,18.02,0,0,0,18-18V34.4a18.02,18.02,0,0,0-18-18Z" transform="translate(0 0.071)" fill="#e6691b"/>
    <circle id="Ellipse_2186" data-name="Ellipse 2186" cx="1.692" cy="1.692" r="1.692" transform="translate(34.582 19.174)" fill="#eaffbb"/>
    <circle id="Ellipse_2187" data-name="Ellipse 2187" cx="1.692" cy="1.692" r="1.692" transform="translate(63.34 53.509)" fill="#eaffbb"/>
    <circle id="Ellipse_2188" data-name="Ellipse 2188" cx="2.514" cy="2.514" r="2.514" transform="translate(58.275 59.101)" fill="#eaffbb"/>
    <path id="Path_79667" data-name="Path 79667" d="M35.871,26.117c-.675-.924-2.861.327-4.687.6-3.7.546-4.491,2.72-3.673,4.7s3.313,1.188,4.361.014a19.232,19.232,0,0,1,3.533-3.23C36.64,27.391,36.185,26.547,35.871,26.117Z" transform="translate(-5.311 -4.664)" fill="#eaffbb"/>
    <g id="Group_88707" data-name="Group 88707">
      <path id="Path_85220" data-name="Path 85220" d="M64.871,50.011H61.909V55.97a2.384,2.384,0,0,1-2.384,2.384H54.758a2.384,2.384,0,0,1-2.384-2.384V50.011H49.412a2.384,2.384,0,0,1-1.686-4.069l7.73-7.729a2.383,2.383,0,0,1,3.37,0l7.73,7.729a2.384,2.384,0,0,1-1.686,4.069Z" transform="translate(-12.983 -11.17)" fill="#eaffbb"/>
      <rect id="Rectangle_152065" data-name="Rectangle 152065" width="20.917" height="5.959" transform="translate(33.355 51.95)" fill="#eaffbb"/>
      <path id="Path_85221" data-name="Path 85221" d="M56.334,35.515a3.551,3.551,0,0,0-2.528,1.048l-7.729,7.729a3.575,3.575,0,0,0,2.528,6.1h1.77v4.767a3.579,3.579,0,0,0,3.575,3.575h4.767a3.579,3.579,0,0,0,3.575-3.575V50.394h1.77a3.575,3.575,0,0,0,2.528-6.1l-7.729-7.729A3.551,3.551,0,0,0,56.334,35.515ZM48.6,48.011a1.192,1.192,0,0,1-.843-2.034l7.729-7.729a1.219,1.219,0,0,1,1.685,0l7.73,7.729a1.192,1.192,0,0,1-.843,2.034H61.1A1.192,1.192,0,0,0,59.909,49.2v5.959a1.192,1.192,0,0,1-1.192,1.192H53.95a1.192,1.192,0,0,1-1.192-1.192V49.2a1.192,1.192,0,0,0-1.192-1.192Z" transform="translate(-12.176 -10.362)" fill="#be6622"/>
      <path id="Path_85222" data-name="Path 85222" d="M64.256,86.827H47.6a3.579,3.579,0,0,1-3.575-3.575V82.06A3.58,3.58,0,0,1,47.6,78.485h16.66a3.58,3.58,0,0,1,3.575,3.575v1.192a3.58,3.58,0,0,1-3.575,3.575ZM47.6,80.869A1.192,1.192,0,0,0,46.4,82.06v1.192A1.192,1.192,0,0,0,47.6,84.444h16.66a1.192,1.192,0,0,0,1.192-1.192V82.06a1.192,1.192,0,0,0-1.192-1.192Z" transform="translate(-11.768 -27.727)" fill="#be6622"/>
    </g>
  </g>
</svg>
