<svg id="refresh_reload" data-name="refresh, reload" xmlns="http://www.w3.org/2000/svg" width="55.2" height="55.746" viewBox="0 0 55.2 55.746">
  <rect id="Rectangle_150865" data-name="Rectangle 150865" width="53.322" height="55.746" rx="22" transform="translate(0.938)" fill="#faad29"/>
  <path id="Path_79664" data-name="Path 79664" d="M42.25,84.894c-24.84,0-23.931-5.382-25.72-6.886A17.664,17.664,0,0,0,33.9,92.484H51.565A17.664,17.664,0,0,0,69.229,74.82V68.438S68.022,84.894,42.25,84.894Z" transform="translate(-15.133 -38.116)" fill="#e6691b"/>
  <path id="Path_79666" data-name="Path 79666" d="M50.432,69.2H32.768A18.789,18.789,0,0,1,14,50.432V32.768A18.789,18.789,0,0,1,32.768,14H50.432A18.789,18.789,0,0,1,69.2,32.768V50.432A18.789,18.789,0,0,1,50.432,69.2ZM32.768,16.208a16.579,16.579,0,0,0-16.56,16.56V50.432a16.579,16.579,0,0,0,16.56,16.56H50.432a16.579,16.579,0,0,0,16.56-16.56V32.768a16.579,16.579,0,0,0-16.56-16.56Z" transform="translate(-14 -13.727)" fill="#e6691b"/>
  <ellipse id="Ellipse_2186" data-name="Ellipse 2186" cx="1.561" cy="1.561" rx="1.561" ry="1.561" transform="translate(18.932 4.982)" fill="#eaffbb"/>
  <ellipse id="Ellipse_2187" data-name="Ellipse 2187" cx="1.561" cy="1.561" rx="1.561" ry="1.561" transform="translate(45.362 36.549)" fill="#eaffbb"/>
  <ellipse id="Ellipse_2188" data-name="Ellipse 2188" cx="2.32" cy="2.32" rx="2.32" ry="2.32" transform="translate(40.721 41.689)" fill="#eaffbb"/>
  <path id="Path_79667" data-name="Path 79667" d="M35.2,26.091c-.623-.853-2.64.3-4.325.552-3.414.5-4.144,2.51-3.39,4.337s3.057,1.1,4.024.013a17.748,17.748,0,0,1,3.261-2.981C35.912,27.267,35.493,26.488,35.2,26.091Z" transform="translate(-19.922 -19.005)" fill="#eaffbb"/>
  <path id="Path_85142" data-name="Path 85142" d="M48.212,42.629v3.256H38.62A2.62,2.62,0,0,0,36,48.505v5.24a2.62,2.62,0,0,0,2.62,2.62h9.591v3.256a2.62,2.62,0,0,0,4.473,1.853l8.5-8.5a2.62,2.62,0,0,0,0-3.707l-8.5-8.495a2.62,2.62,0,0,0-4.473,1.852Z" transform="translate(-21.373 -25.066)" fill="#eaffbb"/>
  <path id="Path_85143" data-name="Path 85143" d="M49.781,62.1a3.6,3.6,0,0,1-1.38-.278,3.492,3.492,0,0,1-2.19-3.277v-2.33H37.546A3.551,3.551,0,0,1,34,52.672v-5.24a3.551,3.551,0,0,1,3.547-3.546h8.665V41.556a3.547,3.547,0,0,1,6.055-2.508l8.5,8.5a3.552,3.552,0,0,1,0,5.016l-8.5,8.5A3.5,3.5,0,0,1,49.781,62.1ZM37.548,45.738a1.7,1.7,0,0,0-1.695,1.693v5.24a1.7,1.7,0,0,0,1.694,1.693h9.591a.927.927,0,0,1,.927.927v3.256a1.694,1.694,0,0,0,2.891,1.2l8.5-8.5a1.7,1.7,0,0,0,0-2.395l-8.5-8.5a1.694,1.694,0,0,0-2.891,1.2v3.256a.927.927,0,0,1-.927.927Z" transform="translate(-20.3 -23.993)" fill="#e6691b"/>
</svg>
