<svg xmlns="http://www.w3.org/2000/svg" width="60" height="60" viewBox="0 0 60 60">
  <g id="refresh_reload" data-name="refresh, reload" transform="translate(-14 -14.071)">
    <rect id="Rectangle_150865" data-name="Rectangle 150865" width="57.966" height="58.099" rx="22" transform="translate(15.017 14.775)" fill="#faad29"/>
    <path id="Path_79664" data-name="Path 79664" d="M44.491,86.27c-27,0-26.016-5.832-27.961-7.461A19.186,19.186,0,0,0,35.415,94.5h19.2a19.172,19.172,0,0,0,19.2-19.141V68.438S72.508,86.27,44.491,86.27Z" transform="translate(-1.016 -21.621)" fill="#e6691b"/>
    <path id="Path_79666" data-name="Path 79666" d="M53.6,74H34.4A20.423,20.423,0,0,1,14,53.6V34.4A20.423,20.423,0,0,1,34.4,14H53.6A20.423,20.423,0,0,1,74,34.4V53.6A20.423,20.423,0,0,1,53.6,74ZM34.4,16.4a18.02,18.02,0,0,0-18,18V53.6a18.02,18.02,0,0,0,18,18H53.6a18.02,18.02,0,0,0,18-18V34.4a18.02,18.02,0,0,0-18-18Z" transform="translate(0 0.071)" fill="#e6691b"/>
    <circle id="Ellipse_2186" data-name="Ellipse 2186" cx="1.692" cy="1.692" r="1.692" transform="translate(34.582 19.174)" fill="#eaffbb"/>
    <circle id="Ellipse_2187" data-name="Ellipse 2187" cx="1.692" cy="1.692" r="1.692" transform="translate(63.34 53.509)" fill="#eaffbb"/>
    <circle id="Ellipse_2188" data-name="Ellipse 2188" cx="2.514" cy="2.514" r="2.514" transform="translate(58.275 59.101)" fill="#eaffbb"/>
    <path id="Path_79667" data-name="Path 79667" d="M35.871,26.117c-.675-.924-2.861.327-4.687.6-3.7.546-4.491,2.72-3.673,4.7s3.313,1.188,4.361.014a19.232,19.232,0,0,1,3.533-3.23C36.64,27.391,36.185,26.547,35.871,26.117Z" transform="translate(-5.311 -4.664)" fill="#eaffbb"/>
    <path id="Path_85179" data-name="Path 85179" d="M67.965,61.381,66.01,58.123V49.761a10.75,10.75,0,0,0-8.958-10.586V37.323a1.86,1.86,0,0,0-1.7-1.89,1.792,1.792,0,0,0-1.888,1.792v1.95A10.75,10.75,0,0,0,44.51,49.764v8.361l-1.955,3.258a1.792,1.792,0,0,0,1.537,2.711H66.428a1.792,1.792,0,0,0,1.537-2.714Z" transform="translate(-11.101 -9.693)" fill="#eaffbb"/>
    <path id="Path_85180" data-name="Path 85180" d="M65.622,64.482H43.286a2.986,2.986,0,0,1-2.56-4.523l1.784-2.975v-8.03A11.911,11.911,0,0,1,51.468,37.4v-.986a3,3,0,0,1,.931-2.166,2.95,2.95,0,0,1,2.214-.815,3.038,3.038,0,0,1,2.827,3.085V37.4A11.911,11.911,0,0,1,66.4,48.953v8.032l1.785,2.975a2.986,2.986,0,0,1-2.561,4.523ZM54.454,35.815a.6.6,0,0,0-.6.6v1.955a1.194,1.194,0,0,1-1,1.178,9.532,9.532,0,0,0-7.963,9.41v8.361a1.2,1.2,0,0,1-.17.615L42.773,61.19a.6.6,0,0,0,.512.9H65.622a.6.6,0,0,0,.512-.9h0L64.18,57.931a1.2,1.2,0,0,1-.17-.616V48.954a9.532,9.532,0,0,0-7.963-9.412,1.194,1.194,0,0,1-1-1.175V36.516a.673.673,0,0,0-.563-.7Z" transform="translate(-10.296 -8.888)" fill="#e6691b"/>
    <path id="Path_85181" data-name="Path 85181" d="M60.579,88.889a5.464,5.464,0,0,0,5.464-5.463H55.114a5.464,5.464,0,0,0,5.465,5.463Z" transform="translate(-16.261 -28.927)" fill="#e6691b"/>
  </g>
</svg>
