<svg xmlns="http://www.w3.org/2000/svg" width="60" height="60" viewBox="0 0 60 60">
  <g id="refresh_reload" data-name="refresh, reload" transform="translate(0)">
    <rect id="Rectangle_150865" data-name="Rectangle 150865" width="57.986" height="60" rx="22" transform="translate(1.007)" fill="#faad29"/>
    <path id="Path_79664" data-name="Path 79664" d="M44.5,86.1c-27.016,0-26.028-5.775-27.974-7.388A19.143,19.143,0,0,0,35.424,94.24H54.635A19.084,19.084,0,0,0,73.847,75.286V68.438S72.534,86.1,44.5,86.1Z" transform="translate(-15.032 -35.718)" fill="#e6691b"/>
    <path id="Path_79666" data-name="Path 79666" d="M53.6,73.414H34.4A20.324,20.324,0,0,1,14,53.213V34.2A20.324,20.324,0,0,1,34.4,14H53.6A20.324,20.324,0,0,1,74,34.2V53.213a20.324,20.324,0,0,1-20.4,20.2ZM34.4,16.377A17.933,17.933,0,0,0,16.4,34.2V53.213a17.933,17.933,0,0,0,18,17.824H53.6a17.933,17.933,0,0,0,18-17.824V34.2a17.933,17.933,0,0,0-18-17.824Z" transform="translate(-14 -13.707)" fill="#e6691b"/>
    <ellipse id="Ellipse_2186" data-name="Ellipse 2186" cx="1.675" cy="1.675" rx="1.675" ry="1.675" transform="translate(20.594 5.346)" fill="#eaffbb"/>
    <ellipse id="Ellipse_2187" data-name="Ellipse 2187" cx="1.675" cy="1.675" rx="1.675" ry="1.675" transform="translate(49.444 39.346)" fill="#eaffbb"/>
    <ellipse id="Ellipse_2188" data-name="Ellipse 2188" cx="2.489" cy="2.489" rx="2.489" ry="2.489" transform="translate(44.315 44.882)" fill="#eaffbb"/>
    <path id="Path_79667" data-name="Path 79667" d="M35.786,26.114c-.668-.915-2.833.323-4.641.592-3.663.541-4.447,2.693-3.637,4.654s3.28,1.176,4.318.014a19.043,19.043,0,0,1,3.5-3.2C36.547,27.376,36.1,26.54,35.786,26.114Z" transform="translate(-19.389 -18.51)" fill="#eaffbb"/>
    <path id="Path_85187" data-name="Path 85187" d="M71.714,56.2H43.2V75.8a1.782,1.782,0,0,0,1.782,1.782H69.931A1.782,1.782,0,0,0,71.714,75.8Z" transform="translate(-27.457 -38.61)" fill="#eaffbb"/>
    <path id="Path_85188" data-name="Path 85188" d="M69.3,78.327H44.353A3.156,3.156,0,0,1,41.2,75.174v-19.6A1.371,1.371,0,0,1,42.571,54.2H71.084a1.371,1.371,0,0,1,1.371,1.371v19.6A3.156,3.156,0,0,1,69.3,78.327ZM43.942,56.942V75.174a.411.411,0,0,0,.411.411H69.3a.411.411,0,0,0,.411-.411V56.942Z" transform="translate(-26.828 -37.981)" fill="#e6691b"/>
    <path id="Path_85191" data-name="Path 85191" d="M54.564,72.91a1.782,1.782,0,0,1-3.564,0V65.782a1.782,1.782,0,0,1,3.564,0Z" transform="translate(-29.911 -41.064)" fill="#e6691b"/>
    <path id="Path_85192" data-name="Path 85192" d="M64.964,72.91a1.782,1.782,0,0,1-3.564,0V65.782a1.782,1.782,0,0,1,3.564,0Z" transform="translate(-33.182 -41.064)" fill="#e6691b"/>
    <path id="Path_85193" data-name="Path 85193" d="M75.364,72.91a1.782,1.782,0,0,1-3.564,0V65.782a1.782,1.782,0,0,1,3.564,0Z" transform="translate(-36.454 -41.064)" fill="#e6691b"/>
  </g>
</svg>
