<svg id="refresh_reload" data-name="refresh, reload" xmlns="http://www.w3.org/2000/svg" width="50.173" height="50.67" viewBox="0 0 50.173 50.67">
  <rect id="Rectangle_150865" data-name="Rectangle 150865" width="48.467" height="50.67" rx="19" transform="translate(0.853)" fill="#faad29"/>
  <path id="Path_79664" data-name="Path 79664" d="M39.908,83.4C17.33,83.4,18.157,78.5,16.53,77.137A16.055,16.055,0,0,0,32.32,90.294H48.375A16.055,16.055,0,0,0,64.43,74.239v-5.8S63.333,83.4,39.908,83.4Z" transform="translate(-15.261 -40.877)" fill="#e6691b"/>
  <path id="Path_79666" data-name="Path 79666" d="M47.114,64.173H31.059A17.078,17.078,0,0,1,14,47.114V31.059A17.078,17.078,0,0,1,31.059,14H47.114A17.078,17.078,0,0,1,64.173,31.059V47.114A17.078,17.078,0,0,1,47.114,64.173ZM31.059,16.007A15.069,15.069,0,0,0,16.007,31.059V47.114A15.069,15.069,0,0,0,31.059,62.166H47.114A15.069,15.069,0,0,0,62.166,47.114V31.059A15.069,15.069,0,0,0,47.114,16.007Z" transform="translate(-14 -13.752)" fill="#e6691b"/>
  <ellipse id="Ellipse_2186" data-name="Ellipse 2186" cx="1.419" cy="1.419" rx="1.419" ry="1.419" transform="translate(17.208 4.528)" fill="#eaffbb"/>
  <ellipse id="Ellipse_2187" data-name="Ellipse 2187" cx="1.419" cy="1.419" rx="1.419" ry="1.419" transform="translate(41.231 33.221)" fill="#eaffbb"/>
  <ellipse id="Ellipse_2188" data-name="Ellipse 2188" cx="2.109" cy="2.109" rx="2.109" ry="2.109" transform="translate(37.013 37.893)" fill="#eaffbb"/>
  <path id="Path_79667" data-name="Path 79667" d="M34.476,26.063c-.566-.775-2.4.274-3.931.5-3.1.458-3.767,2.281-3.081,3.942s2.779,1,3.658.012a16.132,16.132,0,0,1,2.964-2.709C35.121,27.132,34.74,26.424,34.476,26.063Z" transform="translate(-20.586 -19.622)" fill="#eaffbb"/>
  <g id="Group_88676" data-name="Group 88676" transform="translate(17.446 11.897)">
    <path id="Path_67192" data-name="Path 67192" d="M21.281,27.468l-.013-7.64-5.081-5.094,5.081-5.106L21.281,2H6V9.64l5.094,5.094L6,19.815v7.653ZM8.547,9V4.547H18.734V9L13.64,14.1Z" transform="translate(-6 -2)" fill="#eaffbb" stroke="#e6691b" stroke-width="1"/>
  </g>
</svg>
