<svg xmlns="http://www.w3.org/2000/svg" width="60" height="60" viewBox="0 0 60 60">
  <g id="refresh_reload" data-name="refresh, reload" transform="translate(-14 -14.071)">
    <rect id="Rectangle_150865" data-name="Rectangle 150865" width="57.966" height="58.099" rx="22" transform="translate(15.017 14.775)" fill="#faad29"/>
    <path id="Path_79664" data-name="Path 79664" d="M44.491,86.27c-27,0-26.016-5.832-27.961-7.461A19.186,19.186,0,0,0,35.415,94.5h19.2a19.172,19.172,0,0,0,19.2-19.141V68.438S72.508,86.27,44.491,86.27Z" transform="translate(-1.016 -21.621)" fill="#e6691b"/>
    <path id="Path_79666" data-name="Path 79666" d="M53.6,74H34.4A20.423,20.423,0,0,1,14,53.6V34.4A20.423,20.423,0,0,1,34.4,14H53.6A20.423,20.423,0,0,1,74,34.4V53.6A20.423,20.423,0,0,1,53.6,74ZM34.4,16.4a18.02,18.02,0,0,0-18,18V53.6a18.02,18.02,0,0,0,18,18H53.6a18.02,18.02,0,0,0,18-18V34.4a18.02,18.02,0,0,0-18-18Z" transform="translate(0 0.071)" fill="#e6691b"/>
    <circle id="Ellipse_2186" data-name="Ellipse 2186" cx="1.692" cy="1.692" r="1.692" transform="translate(34.582 19.174)" fill="#eaffbb"/>
    <circle id="Ellipse_2187" data-name="Ellipse 2187" cx="1.692" cy="1.692" r="1.692" transform="translate(63.34 53.509)" fill="#eaffbb"/>
    <circle id="Ellipse_2188" data-name="Ellipse 2188" cx="2.514" cy="2.514" r="2.514" transform="translate(58.275 59.101)" fill="#eaffbb"/>
    <path id="Path_79667" data-name="Path 79667" d="M35.871,26.117c-.675-.924-2.861.327-4.687.6-3.7.546-4.491,2.72-3.673,4.7s3.313,1.188,4.361.014a19.232,19.232,0,0,1,3.533-3.23C36.64,27.391,36.185,26.547,35.871,26.117Z" transform="translate(-5.311 -4.664)" fill="#eaffbb"/>
    <path id="Path_79668" data-name="Path 79668" d="M41.46,49.764a3.259,3.259,0,0,0,4.4-1.381,9.423,9.423,0,0,1,11.413-4.57l-1.522,1.522a2.175,2.175,0,0,0,1.534,3.714h8.7a2.175,2.175,0,0,0,2.175-2.175v-8.7a2.175,2.175,0,0,0-3.712-1.538L62.186,38.9A15.963,15.963,0,0,0,40.08,45.362a3.262,3.262,0,0,0,1.38,4.4Z" transform="translate(-10.24 -8.717)" fill="#eaffbb"/>
    <path id="Path_79669" data-name="Path 79669" d="M67.424,68.742a3.262,3.262,0,0,0-4.4,1.381,9.42,9.42,0,0,1-11.413,4.569l1.522-1.522a2.174,2.174,0,0,0-1.534-3.713h-8.7a2.175,2.175,0,0,0-2.175,2.174v8.7a2.174,2.174,0,0,0,3.712,1.538L46.7,79.6A15.963,15.963,0,0,0,68.8,73.141,3.262,3.262,0,0,0,67.424,68.742Z" transform="translate(-10.643 -21.646)" fill="#eaffbb"/>
    <path id="Path_79670" data-name="Path 79670" d="M42.191,50.528a4.521,4.521,0,0,1-2.074-.508h0A4.445,4.445,0,0,1,38.221,44a17.309,17.309,0,0,1,23.085-7.379l1.646-1.637a3.405,3.405,0,0,1,3.7-.731,3.37,3.37,0,0,1,2.093,3.115v8.7a3.384,3.384,0,0,1-3.39,3.371H56.6a3.392,3.392,0,0,1-3.123-2.057,3.357,3.357,0,0,1,.689-3.661q-.318-.025-.636-.025a8.287,8.287,0,0,0-7.36,4.435A4.48,4.48,0,0,1,42.191,50.528Zm-.96-2.628a2.082,2.082,0,0,0,2.8-.875,10.71,10.71,0,0,1,12.937-5.148,1.193,1.193,0,0,1,.463,1.979L55.9,45.378a.974.974,0,0,0-.214,1.065.984.984,0,0,0,.907.605H65.35a.982.982,0,0,0,.983-.979v-8.7a.979.979,0,0,0-.608-.9.989.989,0,0,0-1.072.212l-2.279,2.266a1.209,1.209,0,0,1-1.45.191,14.9,14.9,0,0,0-20.574,5.975A2.058,2.058,0,0,0,41.23,47.9Z" transform="translate(-9.527 -7.915)" fill="#be6622"/>
    <path id="Path_79671" data-name="Path 79671" d="M42.111,82.9a3.381,3.381,0,0,1-3.39-3.371v-8.7a3.384,3.384,0,0,1,3.39-3.371h8.752a3.392,3.392,0,0,1,3.122,2.057,3.356,3.356,0,0,1-.688,3.66c.212.016.421.025.636.025a8.289,8.289,0,0,0,7.36-4.436,4.5,4.5,0,0,1,6.052-1.886h0a4.445,4.445,0,0,1,1.9,6.016,17.31,17.31,0,0,1-23.086,7.379L44.51,81.912A3.38,3.38,0,0,1,42.111,82.9Zm0-13.048a.981.981,0,0,0-.983.978v8.7a.975.975,0,0,0,.607.9,1,1,0,0,0,1.073-.212l2.279-2.266a1.209,1.209,0,0,1,1.45-.192A14.9,14.9,0,0,0,67.11,71.788,2.06,2.06,0,0,0,66.231,69a2.084,2.084,0,0,0-2.8.874A10.706,10.706,0,0,1,50.49,75.021a1.193,1.193,0,0,1-.463-1.978l1.531-1.522a.974.974,0,0,0,.213-1.066.984.984,0,0,0-.908-.6Z" transform="translate(-9.934 -20.842)" fill="#be6622"/>
  </g>
</svg>
