<svg id="add_plus" data-name="add, plus" xmlns="http://www.w3.org/2000/svg" width="50.67" height="50.67" viewBox="0 0 50.67 50.67">
  <rect id="Rectangle_152046" data-name="Rectangle 152046" width="48" height="49" rx="21" transform="translate(1.373 0.832)" fill="#a7e34f"/>
  <path id="Path_85172" data-name="Path 85172" d="M48.361,16H32.181C23.244,16,16,23.622,16,33.024v5.32c0-9.4,7.244-17.024,16.181-17.024H48.361c8.936,0,16.181,7.622,16.181,17.024v-5.32C64.542,23.622,57.3,16,48.361,16Z" transform="translate(-14.936 -14.936)" fill="#bae97f"/>
  <path id="Path_85173" data-name="Path 85173" d="M40.084,84.3c-22.747,0-21.915-5.187-23.554-6.636,1.409,8.081,8.1,13.95,15.908,13.951H48.614c8.934,0,16.176-7.622,16.176-17.024V68.438S63.684,84.3,40.084,84.3Z" transform="translate(-15.184 -42.007)" fill="#80c31b"/>
  <path id="Path_85174" data-name="Path 85174" d="M40.084,84.3c-22.747,0-21.915-5.187-23.554-6.636.082.475.185.943.3,1.4,1.329,1.782,2.025,6.3,23.253,6.3,23.6,0,24.7-15.86,24.7-15.86V68.438S63.684,84.3,40.084,84.3Z" transform="translate(-15.184 -42.007)" fill="#c7f478"/>
  <path id="Path_85175" data-name="Path 85175" d="M47.442,64.67H31.228A17.247,17.247,0,0,1,14,47.442V31.228A17.247,17.247,0,0,1,31.228,14H47.442A17.247,17.247,0,0,1,64.67,31.228V47.442A17.247,17.247,0,0,1,47.442,64.67ZM31.228,16.027a15.218,15.218,0,0,0-15.2,15.2V47.442a15.218,15.218,0,0,0,15.2,15.2H47.442a15.218,15.218,0,0,0,15.2-15.2V31.228a15.218,15.218,0,0,0-15.2-15.2Z" transform="translate(-14 -14)" fill="#5a8909"/>
  <circle id="Ellipse_2202" data-name="Ellipse 2202" cx="1.504" cy="1.504" r="1.504" transform="translate(17.326 4.538)" fill="#eaffbb"/>
  <circle id="Ellipse_2203" data-name="Ellipse 2203" cx="1.504" cy="1.504" r="1.504" transform="translate(41.189 33.2)" fill="#eaffbb"/>
  <circle id="Ellipse_2204" data-name="Ellipse 2204" cx="2.236" cy="2.236" r="2.236" transform="translate(37.208 37.843)" fill="#eaffbb"/>
  <path id="Path_85176" data-name="Path 85176" d="M34.914,26.08c-.6-.822-2.545.29-4.168.532-3.29.486-3.994,2.419-3.267,4.18s2.946,1.057,3.878.012A17.1,17.1,0,0,1,34.5,27.931C35.6,27.213,35.193,26.463,34.914,26.08Z" transform="translate(-20.186 -19.514)" fill="#eaffbb"/>
  <path id="Path_85206" data-name="Path 85206" d="M26.956,7.718,24.828,5.59,15.26,15.158l2.128,2.128Zm6.4-2.128L17.388,21.557,11.08,15.264,8.952,17.392l8.436,8.436L35.5,7.718ZM.41,17.392l8.436,8.436L10.974,23.7,2.553,15.264Z" transform="translate(7.381 8.877)" fill="#eaffbb" stroke="#5a8909" stroke-width="1"/>
</svg>
