<svg xmlns="http://www.w3.org/2000/svg" width="32" height="32" viewBox="0 0 32 32">
  <g id="Group_88660" data-name="Group 88660" transform="translate(-3250 -5377)">
    <rect id="Rectangle_146768" data-name="Rectangle 146768" width="32" height="32" rx="16" transform="translate(3250 5377)" fill="#fff" opacity="0"/>
    <g id="Group_69274" data-name="Group 69274" transform="translate(-9242 1350)">
      <g id="Group_69303" data-name="Group 69303" transform="translate(-2.063 -1.763)">
        <g id="Group_69260" data-name="Group 69260" transform="translate(12506.254 4038.403)">
          <path id="Path_48905" data-name="Path 48905" d="M8.156,6.57a2.648,2.648,0,0,1,1-.871,4.441,4.441,0,0,1,1.434-.374V4h1.548V5.262a16.913,16.913,0,0,1,2.451.221l.195,2.1a.415.415,0,0,1-.058-.006l-.118-.019-.155-.026q-.64-.1-1.05-.146-.741-.076-1.266-.076-1.542,0-1.825.629a.692.692,0,0,0,.014.521,1.151,1.151,0,0,0,.542.445,9.475,9.475,0,0,0,1.269.426,15.915,15.915,0,0,1,1.69.581,2.892,2.892,0,0,1,.828.536,1.723,1.723,0,0,1,.552,1.042,3.792,3.792,0,0,1,.027,1A2.528,2.528,0,0,1,13.786,14.7a5.093,5.093,0,0,1-1.65.426V16.4H10.588V15.153a20.889,20.889,0,0,1-2.579-.286l-.236-2.194q.027,0,.808.146.357.076,1.118.171a9.361,9.361,0,0,0,1.191.076q1.448,0,1.7-.629a.656.656,0,0,0-.014-.521,1.065,1.065,0,0,0-.43-.387,3.76,3.76,0,0,0-.754-.274q-.162-.051-.485-.133a14.217,14.217,0,0,1-1.7-.58,3.364,3.364,0,0,1-.916-.586A2.322,2.322,0,0,1,7.692,7.91,3.229,3.229,0,0,1,8.156,6.57Z" transform="translate(-7.665 -4)" fill="#6b3e2d"/>
        </g>
        <path id="Path_48927" data-name="Path 48927" d="M2.588,10.645v-.232A2.064,2.064,0,0,0,4.723,8.131V5.569c0-1.56.556-2.193,1.931-2.193h.389V2H6.507c-2.3,0-3.382,1.082-3.382,3.354V7.527C3.125,9.087,2.588,9.6,1,9.6v1.852c1.588,0,2.125.516,2.125,2.076V15.7c0,2.271,1.082,3.354,3.382,3.354h.536V17.683H6.654c-1.375,0-1.931-.633-1.931-2.193V12.926A2.065,2.065,0,0,0,2.588,10.645Zm16.785-.232v.232a2.065,2.065,0,0,0-2.135,2.281V15.49c0,1.56-.556,2.193-1.931,2.193h-.389v1.375h.536c2.3,0,3.382-1.082,3.382-3.354V13.531c0-1.56.536-2.076,2.125-2.076V9.6c-1.588,0-2.125-.516-2.125-2.076V5.354C18.837,3.082,17.754,2,15.455,2h-.536V3.375h.389c1.375,0,1.931.633,1.931,2.193V8.131a2.065,2.065,0,0,0,2.135,2.281Z" transform="translate(12499.057 4034.194)" fill="#6b3e2d"/>
      </g>
    </g>
  </g>
</svg>
