<svg xmlns="http://www.w3.org/2000/svg" width="126.701" height="20.287" viewBox="0 0 126.701 20.287">
  <g id="design" transform="translate(0 -0.209)">
    <g id="aw-learn-more" transform="translate(0 0.209)">
      <g id="logo" transform="translate(0 0)">
        <path id="Fill-1" d="M29,18.029h2.406V6H29Z" transform="translate(-11.558 -2.517)" fill="#fff" fill-rule="evenodd"/>
        <g id="Group-34" transform="translate(0 0)">
          <g id="Group-4" transform="translate(20.707 7.78)">
            <path id="Fill-2" d="M6.469,5.1v-2A2.156,2.156,0,0,0,4.59,2.126a1.939,1.939,0,0,0-2.04,2.05,2.017,2.017,0,0,0,2.04,1.9A2.156,2.156,0,0,0,6.469,5.1ZM8.92.27V8.483A4.08,4.08,0,0,1,4.556,12.6,3.941,3.941,0,0,1,.343,9.09L2.785,9.1c.1.873.858,1.249,1.857,1.249A1.69,1.69,0,0,0,6.469,8.509V7.465a4.2,4.2,0,0,1-2.318.65A4.021,4.021,0,0,1,.123,4.18,3.938,3.938,0,0,1,4.15.091a4.205,4.205,0,0,1,2.318.65V.3Z" transform="translate(-0.123 -0.091)" fill="#fff" fill-rule="evenodd"/>
          </g>
          <path id="Fill-5" d="M57.176,17.2a1.984,1.984,0,1,0-3.954,0,1.983,1.983,0,1,0,3.954,0m2.366,0a4.343,4.343,0,0,1-8.685,0,4.343,4.343,0,1,1,8.685,0" transform="translate(-20.269 -5.249)" fill="#fff" fill-rule="evenodd"/>
          <path id="Fill-7" d="M82.377,18.681v-2.5a2.173,2.173,0,0,0-1.917-.928,2.181,2.181,0,0,0,0,4.357,2.173,2.173,0,0,0,1.917-.928Zm2.406-5.344V21.5l-2.406.012v-.462a4.213,4.213,0,0,1-2.318.667,4.153,4.153,0,0,1-4.027-4.277,4.157,4.157,0,0,1,4.027-4.295,4.213,4.213,0,0,1,2.318.667V13.35Z" transform="translate(-30.302 -5.364)" fill="#fff" fill-rule="evenodd"/>
          <path id="Fill-9" d="M101.392,17.08v4.432H99.03V17.364c0-1.335-.66-2.036-1.827-2.036a2.563,2.563,0,0,0-1.862,1.044v5.14H92.925V13.35h2.416v.616a3.6,3.6,0,0,1,2.335-.821,3.643,3.643,0,0,1,3.716,3.935" transform="translate(-37.036 -5.364)" fill="#fff" fill-rule="evenodd"/>
          <path id="Fill-11" d="M126.324,7.156h-.6V8.6h-.351V7.156h-.6V6.827h1.546Z" transform="translate(-49.731 -2.846)" fill="#fff" fill-rule="evenodd"/>
          <path id="Fill-13" d="M129.554,8.6H129.2V7.611l-.457.732h-.212v0l-.463-.74.005,1h-.352V6.827h.248l.667,1.077.667-1.077h.248Z" transform="translate(-50.905 -2.846)" fill="#fff" fill-rule="evenodd"/>
          <g id="Group-17">
            <path id="Fill-15" d="M15.942,16.35h-2.5l-1.624-6.105L8.329,16.35H5.539L10.933,6.9l-.867-3.282L2.792,16.353H0L9.218.209h2.444l1.07,4.011h2.522L13.532,7.247Z" transform="translate(0 -0.209)" fill="#fff" fill-rule="evenodd"/>
          </g>
          <path id="Fill-18" d="M114.935,16.186V13.665A2.189,2.189,0,0,0,113,12.73a2.107,2.107,0,0,0-2.1,2.187,2.111,2.111,0,0,0,2.1,2.2,2.19,2.19,0,0,0,1.932-.935Zm2.452-9.327V19.006h-2.452v-.462a4.213,4.213,0,0,1-2.318.667,4.157,4.157,0,0,1-4.027-4.294,4.153,4.153,0,0,1,4.027-4.277,4.213,4.213,0,0,1,2.318.667V6.858Z" transform="translate(-43.279 -2.859)" fill="#fff" fill-rule="evenodd"/>
          <path id="Fill-20" d="M72.033,15.51a3.322,3.322,0,0,0-2.518,1.148v4.957H67.1V13.467h2.418v.611a3.224,3.224,0,0,1,2.518-.646Z" transform="translate(-26.742 -5.469)" fill="#fff" fill-rule="evenodd"/>
          <path id="Fill-22" d="M136.33,7.089h2.387l1.34,6.841c.086.4.12.66.155.9a8.045,8.045,0,0,1,.172-.92l1.649-6.824h2.009l1.683,6.824a8.045,8.045,0,0,1,.172.92c.034-.243.069-.5.155-.9l1.34-6.841h2.37l-2.593,12.155H145l-1.82-7.154a6.609,6.609,0,0,1-.172-.921,5.9,5.9,0,0,1-.172.9l-1.769,7.171h-2.164Z" transform="translate(-54.335 -2.951)" fill="#fff" fill-rule="evenodd"/>
          <path id="Fill-24" d="M163.585,18.779v-.955a4.348,4.348,0,0,0-1.632-.295c-.927,0-1.683.295-1.683,1.024,0,.573.515.955,1.477.955a2.634,2.634,0,0,0,1.838-.729Zm0,1.858a3.051,3.051,0,0,1-2.267.851c-1.82,0-3.229-.99-3.229-2.934,0-2.049,1.752-2.934,3.486-2.934a4.438,4.438,0,0,1,2.009.417v-.452c0-.972-.567-1.407-1.58-1.407a4.575,4.575,0,0,0-2.713.886L158.6,13.24a6.4,6.4,0,0,1,3.589-1.042c1.58,0,3.589.4,3.589,3.421V21.28h-2.2Z" transform="translate(-63.007 -4.987)" fill="#fff" fill-rule="evenodd"/>
          <path id="Fill-26" d="M173.881,7.512l2.233-1.059V18.99h-2.233Z" transform="translate(-69.301 -2.698)" fill="#fff" fill-rule="evenodd"/>
          <path id="Fill-28" d="M181.02,7.512l2.233-1.059V18.99H181.02Z" transform="translate(-72.146 -2.698)" fill="#fff" fill-rule="evenodd"/>
          <path id="Fill-30" d="M193.107,15.81a1.688,1.688,0,0,0-1.7-1.632,1.716,1.716,0,0,0-1.889,1.632Zm-5.8,1.024c0-2.865,1.6-4.636,4.1-4.636,2.164,0,3.881,1.337,3.881,4.185a9.663,9.663,0,0,1-.069,1.337H189.5a1.854,1.854,0,0,0,1.906,1.788,2.2,2.2,0,0,0,1.889-.92l1.374,1.406a4.026,4.026,0,0,1-3.263,1.493c-2.542,0-4.1-1.736-4.1-4.653Z" transform="translate(-74.65 -4.987)" fill="#fff" fill-rule="evenodd"/>
          <path id="Fill-32" d="M202.691,16.854V12.1h-1.254v-1.98h1.254V7.53l2.233-1.077v3.664h1.958V12.1h-1.958v4.428c0,.434.223.695.618.695a3.094,3.094,0,0,0,1.443-.382l-.258,1.962a4.3,4.3,0,0,1-1.906.4c-1.511,0-2.13-.868-2.13-2.344" transform="translate(-80.284 -2.698)" fill="#fff" fill-rule="evenodd"/>
        </g>
      </g>
    </g>
  </g>
</svg>
