<svg xmlns="http://www.w3.org/2000/svg" xmlns:xlink="http://www.w3.org/1999/xlink" width="453" height="158" viewBox="0 0 453 158">
  <defs>
    <linearGradient id="linear-gradient" x1="0.5" x2="0.5" y2="1" gradientUnits="objectBoundingBox">
      <stop offset="0" stop-color="#455a64"/>
      <stop offset="1" stop-color="#232d32"/>
    </linearGradient>
    <linearGradient id="linear-gradient-2" x1="0.5" x2="0.5" y2="1" gradientUnits="objectBoundingBox">
      <stop offset="0" stop-color="#1a9bfc"/>
      <stop offset="1" stop-color="#0260f5"/>
    </linearGradient>
    <linearGradient id="linear-gradient-7" x1="0.5" x2="0.5" y2="1" gradientUnits="objectBoundingBox">
      <stop offset="0" stop-color="#00a8b8"/>
      <stop offset="1" stop-color="#00ebe9"/>
    </linearGradient>
    <linearGradient id="linear-gradient-14" x1="0.5" x2="0.5" y2="1" gradientUnits="objectBoundingBox">
      <stop offset="0" stop-color="#0dffda"/>
      <stop offset="1" stop-color="#fff"/>
    </linearGradient>
    <linearGradient id="linear-gradient-38" x1="0.5" x2="0.5" y2="1" gradientUnits="objectBoundingBox">
      <stop offset="0" stop-color="#4589ff"/>
      <stop offset="1" stop-color="#f0f6ff"/>
    </linearGradient>
  </defs>
  <g id="Group_77603" data-name="Group 77603" transform="translate(-1062 -100)">
    <g id="Group_77447" data-name="Group 77447" transform="translate(1062.238 100)">
      <path id="Union_1" data-name="Union 1" d="M181.334,158H0L90.67,0H272Z" transform="translate(180.762 0)" fill="rgba(228,228,228,0.06)"/>
      <path id="Polygon_8" data-name="Polygon 8" d="M90.5,0,181,158H0Z" transform="translate(271.762 158) rotate(180)" fill="rgba(228,228,228,0.06)" opacity="0.418"/>
      <path id="Polygon_9" data-name="Polygon 9" d="M90.5,0,181,158H0Z" transform="translate(-0.238)" fill="rgba(228,228,228,0.06)" opacity="0.418"/>
      <g id="Group_65112" data-name="Group 65112" transform="translate(205.235 11.573)">
        <path id="Path_43393" data-name="Path 43393" d="M343.932,278.25,280.965,241.9c-1.781-1.028-1.558-2.825.5-4.012l42.876-24.746a7.723,7.723,0,0,1,6.949-.288L394.257,249.2c1.781,1.028,1.558,2.825-.5,4.012l-42.876,24.746A7.723,7.723,0,0,1,343.932,278.25Z" transform="translate(-271.859 -147.059)" fill="#05a" opacity="0.175"/>
        <path id="Path_43394" data-name="Path 43394" d="M453.91,130.854,390.943,94.5a2.539,2.539,0,0,0-2.133-.262l0-.007-.114.043-.028.01-2.276.871,2.043,1c-.009.038-.021.073-.029.111l-10.256,46.686c-.514,2.336.514,5.064,2.3,6.092l61.453,35.48-.219,2.6,2.487-.964a3.493,3.493,0,0,0,1.781-2.533l10.256-46.686C456.72,134.61,455.692,131.882,453.91,130.854Z" transform="translate(-316.766 -94.111)" fill="#173d7a"/>
        <path id="Path_43395" data-name="Path 43395" d="M456.965,130.854,394,94.5a2.539,2.539,0,0,0-2.133-.262l0-.007-.114.043-.028.01-2.276.871,2.043,1c-.009.038-.021.073-.029.111l-6.76,30.769,30.809,24,43.441-17.677A4.889,4.889,0,0,0,456.965,130.854Z" transform="translate(-319.82 -94.111)" fill="#396caa"/>
        <path id="Path_43396" data-name="Path 43396" d="M509.428,169.24l4.793-2.04a6.005,6.005,0,0,0-1.942-4.8l-7.588,3.192Z" transform="translate(-374.657 -125.043)" fill="#274f89"/>
        <path id="Path_43397" data-name="Path 43397" d="M436.194,187.622l-62.967-36.354c-1.781-1.028-2.809-3.756-2.3-6.093l10.256-46.686c.513-2.336,2.373-3.4,4.155-2.368l62.967,36.355c1.781,1.028,2.809,3.756,2.3,6.092l-10.256,46.686C439.835,187.59,437.975,188.65,436.194,187.622Z" transform="translate(-313.465 -94.85)" fill="#d4ecff"/>
        <path id="Path_43398" data-name="Path 43398" d="M437.008,187.031l-59.219-34.173a5.4,5.4,0,0,1-2.1-5.575l9.385-42.722c.47-2.138,2.171-3.108,3.8-2.167l59.22,34.173a5.4,5.4,0,0,1,2.1,5.575l-9.385,42.722C440.341,187,438.638,187.972,437.008,187.031Z" transform="translate(-315.645 -97.731)" fill="#fff"/>
        <path id="Path_43399" data-name="Path 43399" d="M437.008,187.031l-59.219-34.173a5.4,5.4,0,0,1-2.1-5.575l9.385-42.722c.47-2.138,2.171-3.108,3.8-2.167l59.22,34.173a5.4,5.4,0,0,1,2.1,5.575l-9.385,42.722C440.341,187,438.638,187.972,437.008,187.031Z" transform="translate(-315.645 -97.731)" fill="url(#linear-gradient)"/>
        <path id="Path_43400" data-name="Path 43400" d="M395.46,239.344l-8.607-1.136-55.561-32.079a7.723,7.723,0,0,0-6.949.288l-39.371,22.722-5.2-.687V231.4h0a2.028,2.028,0,0,0,1.2,1.824l62.967,36.354a7.723,7.723,0,0,0,6.949-.288L393.76,244.55a2.807,2.807,0,0,0,1.7-2.337h0Z" transform="translate(-271.861 -143.988)" fill="#173d7a"/>
        <path id="Path_43401" data-name="Path 43401" d="M353.713,228.636l-3.947-2.279h-43.4l-21.4,12.344-5.2-.687v2.953h0a2.028,2.028,0,0,0,1.2,1.824l62.967,36.354a6.512,6.512,0,0,0,3.586.672Z" transform="translate(-271.861 -153.55)" fill="#396caa"/>
        <path id="Path_43402" data-name="Path 43402" d="M282.077,248.131l-2.31-.3v2.953h0a2.028,2.028,0,0,0,1.2,1.824l1.11.641Z" transform="translate(-271.861 -163.744)" fill="#5793ce"/>
        <path id="Path_43403" data-name="Path 43403" d="M399.111,318.268a8.068,8.068,0,0,0,5.9-.367v-6.587h-5.9Z" transform="translate(-326.404 -192.378)" fill="#274f89"/>
        <path id="Path_43404" data-name="Path 43404" d="M343.932,262.514,280.965,226.16c-1.781-1.028-1.558-2.825.5-4.013L324.34,197.4a7.723,7.723,0,0,1,6.949-.288l62.967,36.354c1.781,1.028,1.558,2.825-.5,4.012l-42.876,24.746A7.723,7.723,0,0,1,343.932,262.514Z" transform="translate(-271.859 -139.868)" fill="#d4ecff"/>
        <path id="Path_43405" data-name="Path 43405" d="M393.761,259.506l-42.876,24.746a7.725,7.725,0,0,1-6.949.288l-62.967-36.355a2.345,2.345,0,0,1-1.107-1.211,1.905,1.905,0,0,0,1.107,2.29l62.967,36.354a7.723,7.723,0,0,0,6.949-.288l42.876-24.746c1.382-.8,1.932-1.871,1.606-2.8A3.348,3.348,0,0,1,393.761,259.506Z" transform="translate(-271.863 -162.973)" fill="#fff"/>
        <g id="Group_65093" data-name="Group 65093" transform="translate(32.883 58.43)">
          <path id="Path_43406" data-name="Path 43406" d="M328.771,225.469l-2.849-1.645c-.229-.132-.2-.363.064-.515l3.363-1.942a.991.991,0,0,1,.892-.037l2.849,1.645c.229.133.2.363-.064.515l-3.363,1.942A.992.992,0,0,1,328.771,225.469Z" transform="translate(-325.768 -210.002)" fill="#b9dff9"/>
          <path id="Path_43407" data-name="Path 43407" d="M336.874,230.147l-2.849-1.645c-.229-.132-.2-.363.064-.515l3.363-1.942a.993.993,0,0,1,.892-.037l2.849,1.645c.229.132.2.363-.064.515l-3.363,1.942A.991.991,0,0,1,336.874,230.147Z" transform="translate(-329.471 -212.14)" fill="#b9dff9"/>
          <path id="Path_43408" data-name="Path 43408" d="M344.977,234.825l-2.849-1.645c-.229-.132-.2-.363.064-.515l3.363-1.941a.991.991,0,0,1,.892-.037l2.849,1.645c.229.132.2.363-.064.515l-3.363,1.942A.994.994,0,0,1,344.977,234.825Z" transform="translate(-333.174 -214.278)" fill="#b9dff9"/>
          <path id="Path_43409" data-name="Path 43409" d="M356.184,231.224l-2.849-1.645c-.229-.132-.2-.363.064-.515l2.823-1.63a.993.993,0,0,1,.893-.037l2.849,1.645c.229.132.2.363-.064.515l-2.823,1.63A.992.992,0,0,1,356.184,231.224Z" transform="translate(-338.296 -212.775)" fill="#b9dff9"/>
          <path id="Path_43410" data-name="Path 43410" d="M364.287,235.9l-2.849-1.645c-.229-.132-.2-.363.064-.515l2.823-1.63a.994.994,0,0,1,.893-.037l2.849,1.645c.229.132.2.363-.064.515l-2.823,1.629A.991.991,0,0,1,364.287,235.9Z" transform="translate(-341.999 -214.913)" fill="#b9dff9"/>
          <path id="Path_43411" data-name="Path 43411" d="M372.39,240.581l-2.849-1.645c-.229-.132-.2-.363.064-.515l2.823-1.629a.991.991,0,0,1,.893-.037l2.849,1.645c.229.132.2.363-.064.515l-2.823,1.629A.993.993,0,0,1,372.39,240.581Z" transform="translate(-345.703 -217.051)" fill="#b9dff9"/>
          <path id="Path_43412" data-name="Path 43412" d="M380.493,245.259l-2.849-1.645c-.229-.132-.2-.363.064-.515l2.823-1.63a.993.993,0,0,1,.893-.037l2.849,1.645c.229.132.2.363-.064.515l-2.823,1.63A.992.992,0,0,1,380.493,245.259Z" transform="translate(-349.406 -219.189)" fill="#b9dff9"/>
          <path id="Path_43413" data-name="Path 43413" d="M388.6,249.937l-2.849-1.645c-.229-.132-.2-.363.064-.515l2.823-1.63a.992.992,0,0,1,.893-.037l2.849,1.645c.229.133.2.363-.064.515l-2.823,1.63A.993.993,0,0,1,388.6,249.937Z" transform="translate(-353.109 -221.327)" fill="#b9dff9"/>
          <path id="Path_43414" data-name="Path 43414" d="M396.7,254.615l-2.849-1.645c-.229-.132-.2-.363.064-.515l2.823-1.63a.992.992,0,0,1,.893-.037l2.849,1.645c.229.132.2.363-.064.515l-2.823,1.629A.991.991,0,0,1,396.7,254.615Z" transform="translate(-356.812 -223.465)" fill="#b9dff9"/>
          <path id="Path_43415" data-name="Path 43415" d="M404.8,259.294l-2.849-1.645c-.229-.132-.2-.363.064-.515l2.823-1.629a.99.99,0,0,1,.892-.037l2.849,1.645c.229.132.2.363-.064.515l-2.822,1.63A.994.994,0,0,1,404.8,259.294Z" transform="translate(-360.516 -225.603)" fill="#b9dff9"/>
          <path id="Path_43416" data-name="Path 43416" d="M412.9,263.972l-2.849-1.645c-.229-.132-.2-.363.064-.515l2.823-1.63a.992.992,0,0,1,.892-.037l2.85,1.645c.229.132.2.363-.065.515l-2.822,1.63A.993.993,0,0,1,412.9,263.972Z" transform="translate(-364.219 -227.741)" fill="#b9dff9"/>
          <path id="Path_43417" data-name="Path 43417" d="M421.008,268.65l-2.849-1.645c-.229-.132-.2-.363.064-.515l2.823-1.63a.991.991,0,0,1,.892-.037l2.849,1.645c.229.132.2.363-.064.515l-2.822,1.63A.992.992,0,0,1,421.008,268.65Z" transform="translate(-367.922 -229.879)" fill="#b9dff9"/>
          <path id="Path_43418" data-name="Path 43418" d="M429.111,273.328l-2.849-1.645c-.229-.132-.2-.363.064-.515l2.823-1.629a.992.992,0,0,1,.892-.037l2.85,1.645c.229.132.2.363-.065.515L430,273.291A.989.989,0,0,1,429.111,273.328Z" transform="translate(-371.625 -232.017)" fill="#b9dff9"/>
          <path id="Path_43419" data-name="Path 43419" d="M368.123,229.009l-2.849-1.645c-.229-.132-.2-.363.064-.515l2.823-1.63a.993.993,0,0,1,.893-.037l2.849,1.645c.229.132.2.363-.064.515l-2.823,1.629A.991.991,0,0,1,368.123,229.009Z" transform="translate(-343.753 -211.762)" fill="#b9dff9"/>
          <path id="Path_43420" data-name="Path 43420" d="M359.9,224.261l-2.849-1.645c-.229-.132-.2-.363.064-.515l2.823-1.63a.992.992,0,0,1,.893-.037l2.849,1.645c.229.132.2.363-.064.515l-2.823,1.63A.992.992,0,0,1,359.9,224.261Z" transform="translate(-339.994 -209.592)" fill="#b9dff9"/>
          <path id="Path_43421" data-name="Path 43421" d="M348.9,217.908l-6.136-3.542c-.229-.132-.2-.363.064-.515l2.823-1.63a.993.993,0,0,1,.893-.037l6.136,3.543c.229.132.2.363-.064.515l-2.823,1.629A.991.991,0,0,1,348.9,217.908Z" transform="translate(-333.463 -205.822)" fill="#b9dff9"/>
          <path id="Path_43422" data-name="Path 43422" d="M355.627,212.686l-4.98-2.875c-.229-.132-.2-.363.064-.515l2.823-1.63a.994.994,0,0,1,.893-.037l4.979,2.875c.229.132.2.363-.064.515l-2.822,1.63A.994.994,0,0,1,355.627,212.686Z" transform="translate(-337.068 -203.74)" fill="#b9dff9"/>
          <path id="Path_43423" data-name="Path 43423" d="M376.226,233.688l-2.849-1.645c-.229-.132-.2-.363.064-.515l2.823-1.629a.993.993,0,0,1,.893-.037l2.849,1.645c.229.132.2.363-.064.515l-2.823,1.63A.993.993,0,0,1,376.226,233.688Z" transform="translate(-347.456 -213.9)" fill="#b9dff9"/>
          <path id="Path_43424" data-name="Path 43424" d="M384.329,238.366l-2.849-1.645c-.229-.132-.2-.363.064-.515l2.823-1.629a.992.992,0,0,1,.893-.037l2.849,1.645c.229.132.2.363-.064.515l-2.823,1.63A.992.992,0,0,1,384.329,238.366Z" transform="translate(-351.159 -216.039)" fill="#b9dff9"/>
          <path id="Path_43425" data-name="Path 43425" d="M392.432,243.044l-2.849-1.645c-.229-.132-.2-.363.064-.515l2.823-1.63a.992.992,0,0,1,.893-.037l2.849,1.645c.229.132.2.363-.064.515l-2.823,1.63A.992.992,0,0,1,392.432,243.044Z" transform="translate(-354.862 -218.177)" fill="#b9dff9"/>
          <path id="Path_43426" data-name="Path 43426" d="M400.535,247.722l-2.849-1.645c-.229-.132-.2-.363.064-.515l2.823-1.63a.992.992,0,0,1,.893-.037l2.849,1.645c.229.132.2.363-.064.515l-2.823,1.629A.991.991,0,0,1,400.535,247.722Z" transform="translate(-358.566 -220.315)" fill="#b9dff9"/>
          <path id="Path_43427" data-name="Path 43427" d="M408.638,252.4l-2.849-1.645c-.229-.132-.2-.363.064-.515l2.823-1.629a.993.993,0,0,1,.893-.037l2.849,1.645c.229.132.2.363-.064.515l-2.823,1.629A.993.993,0,0,1,408.638,252.4Z" transform="translate(-362.269 -222.453)" fill="#b9dff9"/>
          <path id="Path_43428" data-name="Path 43428" d="M416.741,257.079l-2.849-1.645c-.229-.132-.2-.363.064-.515l2.823-1.63a.992.992,0,0,1,.893-.037l2.849,1.645c.229.132.2.363-.064.515l-2.823,1.63A.992.992,0,0,1,416.741,257.079Z" transform="translate(-365.972 -224.591)" fill="#b9dff9"/>
          <path id="Path_43429" data-name="Path 43429" d="M424.844,261.757,422,260.112c-.229-.133-.2-.363.064-.515l2.823-1.63a.992.992,0,0,1,.893-.037l2.849,1.645c.229.132.2.363-.064.515l-2.823,1.63A.993.993,0,0,1,424.844,261.757Z" transform="translate(-369.675 -226.729)" fill="#b9dff9"/>
          <path id="Path_43430" data-name="Path 43430" d="M432.947,266.435,430.1,264.79c-.229-.132-.2-.363.064-.515l2.823-1.63a.992.992,0,0,1,.893-.037l2.849,1.645c.229.132.2.363-.064.515L433.84,266.4A.991.991,0,0,1,432.947,266.435Z" transform="translate(-373.379 -228.867)" fill="#b9dff9"/>
          <path id="Path_43431" data-name="Path 43431" d="M441.05,271.114l-2.849-1.645c-.229-.132-.2-.363.064-.515l2.823-1.629a.993.993,0,0,1,.893-.037l2.849,1.645c.229.132.2.363-.064.515l-2.823,1.629A.993.993,0,0,1,441.05,271.114Z" transform="translate(-377.082 -231.005)" fill="#b9dff9"/>
          <path id="Path_43432" data-name="Path 43432" d="M452.621,277.794l-6.216-3.589c-.229-.132-.2-.363.064-.515l2.823-1.63a.992.992,0,0,1,.892-.037l6.216,3.589c.229.132.2.363-.064.515l-2.823,1.629A.991.991,0,0,1,452.621,277.794Z" transform="translate(-380.831 -233.17)" fill="#b9dff9"/>
          <path id="Path_43433" data-name="Path 43433" d="M469.213,269.157l-5.247-3.029c-.229-.132-.2-.363.064-.515l2.823-1.63a.991.991,0,0,1,.892-.037l5.247,3.029c.229.132.2.363-.064.515l-2.822,1.629A.993.993,0,0,1,469.213,269.157Z" transform="translate(-388.857 -229.478)" fill="#b9dff9"/>
          <path id="Path_43434" data-name="Path 43434" d="M390.416,232.772l-2.849-1.645c-.229-.132-.2-.363.064-.515l2.823-1.63a.992.992,0,0,1,.893-.037l2.849,1.645c.229.132.2.363-.064.515l-2.823,1.63A.992.992,0,0,1,390.416,232.772Z" transform="translate(-353.941 -213.482)" fill="#b9dff9"/>
          <path id="Path_43435" data-name="Path 43435" d="M382.112,227.977l-2.849-1.645c-.229-.132-.2-.363.064-.515l2.823-1.629a.99.99,0,0,1,.892-.037l2.849,1.645c.229.132.2.363-.064.515L383,227.94A.99.99,0,0,1,382.112,227.977Z" transform="translate(-350.146 -211.291)" fill="#b9dff9"/>
          <path id="Path_43436" data-name="Path 43436" d="M373.807,223.183l-2.849-1.645c-.229-.133-.2-.363.064-.515l2.823-1.63a.993.993,0,0,1,.893-.037L377.587,221c.229.132.2.363-.064.515l-2.823,1.63A.993.993,0,0,1,373.807,223.183Z" transform="translate(-346.35 -209.1)" fill="#b9dff9"/>
          <path id="Path_43437" data-name="Path 43437" d="M365.5,218.388l-2.849-1.645c-.229-.132-.2-.363.064-.515l2.823-1.63a.993.993,0,0,1,.892-.037l2.849,1.645c.229.132.2.363-.064.515l-2.823,1.63A.99.99,0,0,1,365.5,218.388Z" transform="translate(-342.555 -206.908)" fill="#b9dff9"/>
          <path id="Path_43438" data-name="Path 43438" d="M398.519,237.45l-2.849-1.645c-.229-.132-.2-.363.064-.515l2.823-1.63a.993.993,0,0,1,.893-.037l2.849,1.645c.229.132.2.363-.064.515l-2.823,1.629A.991.991,0,0,1,398.519,237.45Z" transform="translate(-357.644 -215.62)" fill="#b9dff9"/>
          <path id="Path_43439" data-name="Path 43439" d="M406.622,242.129l-2.849-1.645c-.229-.132-.2-.363.064-.515l2.823-1.629a.991.991,0,0,1,.893-.037l2.849,1.645c.229.132.2.363-.064.515l-2.823,1.63A.994.994,0,0,1,406.622,242.129Z" transform="translate(-361.347 -217.758)" fill="#b9dff9"/>
          <path id="Path_43440" data-name="Path 43440" d="M414.725,246.807l-2.849-1.645c-.229-.132-.2-.363.064-.515l2.823-1.63a.992.992,0,0,1,.893-.037l2.849,1.645c.229.132.2.363-.064.515l-2.823,1.63A.993.993,0,0,1,414.725,246.807Z" transform="translate(-365.051 -219.896)" fill="#b9dff9"/>
          <path id="Path_43441" data-name="Path 43441" d="M422.828,251.485l-2.849-1.645c-.229-.132-.2-.363.064-.515l2.823-1.63a.992.992,0,0,1,.893-.037l2.849,1.645c.229.132.2.363-.064.515l-2.823,1.63A.993.993,0,0,1,422.828,251.485Z" transform="translate(-368.754 -222.034)" fill="#b9dff9"/>
          <path id="Path_43442" data-name="Path 43442" d="M430.931,256.163l-2.849-1.645c-.229-.132-.2-.363.064-.515l2.823-1.629a.993.993,0,0,1,.893-.037l2.849,1.645c.229.132.2.363-.064.515l-2.823,1.629A.991.991,0,0,1,430.931,256.163Z" transform="translate(-372.457 -224.173)" fill="#b9dff9"/>
          <path id="Path_43443" data-name="Path 43443" d="M439.034,260.842l-2.849-1.645c-.229-.132-.2-.363.064-.515l2.823-1.63a.991.991,0,0,1,.893-.037l2.849,1.645c.229.132.2.363-.064.515l-2.823,1.63A.994.994,0,0,1,439.034,260.842Z" transform="translate(-376.16 -226.311)" fill="#b9dff9"/>
          <path id="Path_43444" data-name="Path 43444" d="M447.137,265.52l-2.849-1.645c-.229-.133-.2-.363.064-.515l2.823-1.63a.992.992,0,0,1,.893-.037l2.849,1.645c.229.132.2.363-.064.515l-2.823,1.63A.992.992,0,0,1,447.137,265.52Z" transform="translate(-379.864 -228.449)" fill="#b9dff9"/>
          <path id="Path_43445" data-name="Path 43445" d="M455.24,270.2l-2.849-1.645c-.229-.132-.2-.363.064-.515l2.823-1.63a.992.992,0,0,1,.893-.037l2.849,1.645c.229.132.2.363-.064.515l-2.823,1.63A.993.993,0,0,1,455.24,270.2Z" transform="translate(-383.567 -230.587)" fill="#b9dff9"/>
          <path id="Path_43446" data-name="Path 43446" d="M463.343,274.877l-2.849-1.645c-.229-.132-.2-.363.064-.515l2.823-1.629a.993.993,0,0,1,.893-.037l2.849,1.645c.229.132.2.363-.064.515l-2.823,1.63A.993.993,0,0,1,463.343,274.877Z" transform="translate(-387.27 -232.725)" fill="#b9dff9"/>
          <path id="Path_43447" data-name="Path 43447" d="M386.15,221.2l-2.849-1.645c-.229-.132-.2-.363.064-.515l2.823-1.63a.991.991,0,0,1,.892-.037l2.849,1.645c.229.132.2.363-.064.515l-2.823,1.63A.991.991,0,0,1,386.15,221.2Z" transform="translate(-351.991 -208.194)" fill="#b9dff9"/>
          <path id="Path_43448" data-name="Path 43448" d="M378.087,216.546l-2.849-1.645c-.229-.132-.2-.363.064-.515l2.823-1.629a.991.991,0,0,1,.892-.037l2.849,1.645c.229.132.2.363-.064.515l-2.823,1.63A.993.993,0,0,1,378.087,216.546Z" transform="translate(-348.306 -206.066)" fill="#b9dff9"/>
          <path id="Path_43449" data-name="Path 43449" d="M370.024,211.891l-2.849-1.645c-.229-.133-.2-.363.064-.515l2.823-1.63a.992.992,0,0,1,.893-.037l2.849,1.645c.229.132.2.363-.064.515l-2.823,1.63A.992.992,0,0,1,370.024,211.891Z" transform="translate(-344.621 -203.939)" fill="#b9dff9"/>
          <path id="Path_43450" data-name="Path 43450" d="M361.962,207.236l-2.849-1.645c-.229-.132-.2-.363.064-.515l2.823-1.63a.991.991,0,0,1,.892-.037l2.849,1.645c.229.132.2.363-.064.515l-2.823,1.63A.991.991,0,0,1,361.962,207.236Z" transform="translate(-340.937 -201.812)" fill="#b9dff9"/>
          <path id="Path_43451" data-name="Path 43451" d="M370.252,203.367l-2.849-1.645c-.229-.132-.2-.363.064-.515l.933-.539a.993.993,0,0,1,.893-.037l2.849,1.645c.229.132.2.363-.064.515l-.933.539A.992.992,0,0,1,370.252,203.367Z" transform="translate(-344.726 -200.542)" fill="#b9dff9"/>
          <path id="Path_43452" data-name="Path 43452" d="M380.774,209.442l-2.849-1.645c-.229-.132-.2-.363.064-.515l.933-.539a.992.992,0,0,1,.893-.037l2.849,1.645c.229.132.2.363-.064.516l-.933.539A.993.993,0,0,1,380.774,209.442Z" transform="translate(-349.534 -203.318)" fill="#b9dff9"/>
          <path id="Path_43453" data-name="Path 43453" d="M388.8,214.077l-2.849-1.645c-.229-.132-.2-.363.064-.515l.933-.539a.992.992,0,0,1,.893-.037l2.849,1.645c.229.132.2.363-.064.515l-.933.539A.991.991,0,0,1,388.8,214.077Z" transform="translate(-353.204 -205.437)" fill="#b9dff9"/>
          <path id="Path_43454" data-name="Path 43454" d="M396.832,218.713l-2.849-1.645c-.229-.133-.2-.363.064-.515l.933-.539a.993.993,0,0,1,.893-.037l2.849,1.645c.229.132.2.363-.064.515l-.933.539A.992.992,0,0,1,396.832,218.713Z" transform="translate(-356.873 -207.556)" fill="#b9dff9"/>
          <path id="Path_43455" data-name="Path 43455" d="M404.861,223.349l-2.849-1.645c-.229-.132-.2-.363.064-.515l.933-.539a.993.993,0,0,1,.893-.037l2.849,1.645c.229.133.2.363-.064.515l-.933.539A.994.994,0,0,1,404.861,223.349Z" transform="translate(-360.543 -209.674)" fill="#b9dff9"/>
          <path id="Path_43456" data-name="Path 43456" d="M449.687,249.228l-2.85-1.645c-.229-.132-.2-.363.064-.515l.933-.539a.991.991,0,0,1,.893-.037l2.849,1.645c.229.132.2.363-.064.515l-.933.539A.99.99,0,0,1,449.687,249.228Z" transform="translate(-381.029 -221.502)" fill="#b9dff9"/>
          <path id="Path_43457" data-name="Path 43457" d="M457.716,253.864l-2.849-1.645c-.229-.133-.2-.363.064-.515l.933-.539a.992.992,0,0,1,.893-.037l2.849,1.645c.229.132.2.363-.064.515l-.933.539A.991.991,0,0,1,457.716,253.864Z" transform="translate(-384.698 -223.62)" fill="#b9dff9"/>
          <path id="Path_43458" data-name="Path 43458" d="M465.745,258.5l-2.849-1.645c-.229-.132-.2-.363.064-.515l.933-.539a.993.993,0,0,1,.893-.037l2.849,1.645c.229.132.2.363-.064.515l-.933.539A.991.991,0,0,1,465.745,258.5Z" transform="translate(-388.368 -225.739)" fill="#b9dff9"/>
          <path id="Path_43459" data-name="Path 43459" d="M473.774,263.135l-2.849-1.645c-.229-.132-.2-.363.064-.515l.933-.539a.994.994,0,0,1,.893-.037l2.849,1.645c.229.132.2.363-.064.515l-.933.539A.992.992,0,0,1,473.774,263.135Z" transform="translate(-392.037 -227.857)" fill="#b9dff9"/>
          <path id="Path_43460" data-name="Path 43460" d="M394.253,225.879l-2.849-1.645c-.229-.132-.2-.363.064-.515l2.823-1.63a.991.991,0,0,1,.892-.037l2.849,1.645c.229.132.2.363-.064.515l-2.823,1.63A.991.991,0,0,1,394.253,225.879Z" transform="translate(-355.694 -210.332)" fill="#b9dff9"/>
          <path id="Path_43461" data-name="Path 43461" d="M402.356,230.557l-2.849-1.645c-.229-.132-.2-.363.064-.515l2.822-1.63a.994.994,0,0,1,.893-.037l2.849,1.645c.229.132.2.363-.064.515l-2.823,1.629A.991.991,0,0,1,402.356,230.557Z" transform="translate(-359.397 -212.47)" fill="#b9dff9"/>
          <path id="Path_43462" data-name="Path 43462" d="M410.459,235.236l-2.849-1.645c-.229-.132-.2-.363.064-.515l2.822-1.629a.991.991,0,0,1,.893-.037l2.849,1.645c.229.132.2.363-.064.515l-2.823,1.629A.992.992,0,0,1,410.459,235.236Z" transform="translate(-363.101 -214.608)" fill="#b9dff9"/>
          <path id="Path_43463" data-name="Path 43463" d="M418.562,239.914l-2.85-1.645c-.229-.132-.2-.363.065-.515l2.822-1.63a.991.991,0,0,1,.893-.037l2.849,1.645c.229.132.2.363-.064.515l-2.823,1.63A.991.991,0,0,1,418.562,239.914Z" transform="translate(-366.804 -216.746)" fill="#b9dff9"/>
          <path id="Path_43464" data-name="Path 43464" d="M426.664,244.592l-2.849-1.645c-.229-.133-.2-.363.065-.515l2.822-1.63a.993.993,0,0,1,.893-.037l2.849,1.645c.229.133.2.363-.064.515l-2.823,1.63A.992.992,0,0,1,426.664,244.592Z" transform="translate(-370.507 -218.884)" fill="#b9dff9"/>
          <path id="Path_43465" data-name="Path 43465" d="M434.768,249.27l-2.85-1.645c-.229-.132-.2-.363.064-.515l2.823-1.63a.994.994,0,0,1,.893-.037l2.849,1.645c.229.132.2.363-.064.515l-2.823,1.63A.991.991,0,0,1,434.768,249.27Z" transform="translate(-374.21 -221.022)" fill="#b9dff9"/>
          <path id="Path_43466" data-name="Path 43466" d="M442.87,253.949l-2.849-1.645c-.229-.132-.2-.363.065-.515l2.822-1.629a.991.991,0,0,1,.893-.037l2.849,1.645c.229.132.2.363-.064.515l-2.823,1.629A.993.993,0,0,1,442.87,253.949Z" transform="translate(-377.914 -223.16)" fill="#b9dff9"/>
          <path id="Path_43467" data-name="Path 43467" d="M450.974,258.627l-2.85-1.645c-.229-.132-.2-.363.064-.515l2.823-1.63a.991.991,0,0,1,.893-.037l2.849,1.645c.229.132.2.363-.064.515l-2.823,1.63A.991.991,0,0,1,450.974,258.627Z" transform="translate(-381.617 -225.298)" fill="#b9dff9"/>
          <path id="Path_43468" data-name="Path 43468" d="M459.076,263.3l-2.849-1.645c-.229-.132-.2-.363.064-.515l2.823-1.63a.992.992,0,0,1,.893-.037l2.849,1.645c.229.132.2.363-.064.515l-2.823,1.63A.993.993,0,0,1,459.076,263.3Z" transform="translate(-385.32 -227.436)" fill="#b9dff9"/>
          <path id="Path_43469" data-name="Path 43469" d="M343.262,223.764l-8.391-4.844c-.229-.132-.2-.363.064-.515l2.823-1.63a.992.992,0,0,1,.892-.037l8.391,4.844c.229.132.2.363-.064.515l-2.823,1.629A.991.991,0,0,1,343.262,223.764Z" transform="translate(-329.858 -207.903)" fill="#b9dff9"/>
          <path id="Path_43470" data-name="Path 43470" d="M442.809,281.237l-8.391-4.844c-.229-.132-.2-.363.064-.515l2.823-1.629a.99.99,0,0,1,.892-.037l8.391,4.844c.229.132.2.363-.064.515L443.7,281.2A.991.991,0,0,1,442.809,281.237Z" transform="translate(-375.353 -234.17)" fill="#b9dff9"/>
          <path id="Path_43471" data-name="Path 43471" d="M415.069,275.293l-2.849-1.645c-.229-.133-.2-.363.064-.515l3.363-1.942a.992.992,0,0,1,.893-.037l2.849,1.645c.229.132.2.363-.064.515l-3.363,1.942A.991.991,0,0,1,415.069,275.293Z" transform="translate(-365.208 -232.773)" fill="#b9dff9"/>
          <path id="Path_43472" data-name="Path 43472" d="M354.788,240.489l-4.557-2.63c-.229-.132-.2-.363.064-.515l3.363-1.942a.991.991,0,0,1,.892-.037L359.107,238c.229.132.2.363-.064.515l-3.363,1.941A.99.99,0,0,1,354.788,240.489Z" transform="translate(-336.878 -216.416)" fill="#b9dff9"/>
          <path id="Path_43473" data-name="Path 43473" d="M405.824,269.955l-4.556-2.63c-.229-.133-.2-.363.064-.515l3.363-1.942a.992.992,0,0,1,.893-.037l4.556,2.631c.229.132.2.363-.064.515l-3.363,1.941A.991.991,0,0,1,405.824,269.955Z" transform="translate(-360.202 -229.883)" fill="#b9dff9"/>
          <path id="Path_43474" data-name="Path 43474" d="M366.479,247.239l-4.557-2.631c-.229-.132-.2-.363.064-.515l3.363-1.941a.993.993,0,0,1,.893-.037l4.556,2.631c.229.132.2.363-.064.515l-3.363,1.942A.992.992,0,0,1,366.479,247.239Z" transform="translate(-342.221 -219.501)" fill="#b9dff9"/>
          <path id="Path_43475" data-name="Path 43475" d="M366.428,242.222l19.809,11.437a.271.271,0,0,1,0,.514l-3.429,1.98a.985.985,0,0,1-.89,0l-19.81-11.437Z" transform="translate(-342.377 -219.591)" fill="#b9dff9"/>
          <path id="Path_43476" data-name="Path 43476" d="M438.319,287.272l3.174,1.833c.187.108.164.3-.053.422l-1.375.794a.815.815,0,0,1-.732.03l-3.173-1.833c-.188-.108-.164-.3.052-.422l1.376-.794A.814.814,0,0,1,438.319,287.272Z" transform="translate(-376.161 -240.146)" fill="#b9dff9"/>
          <path id="Path_43477" data-name="Path 43477" d="M430.149,282.555l3.174,1.832c.187.109.164.3-.053.422l-1.376.794a.814.814,0,0,1-.731.03l-3.173-1.833c-.188-.108-.164-.3.052-.422l1.376-.794A.814.814,0,0,1,430.149,282.555Z" transform="translate(-372.427 -237.99)" fill="#b9dff9"/>
          <path id="Path_43478" data-name="Path 43478" d="M422.046,277.876l3.174,1.832c.187.109.164.3-.053.422l-1.376.794a.814.814,0,0,1-.731.03l-3.173-1.833c-.188-.108-.164-.3.052-.422l1.376-.794A.81.81,0,0,1,422.046,277.876Z" transform="translate(-368.724 -235.852)" fill="#b9dff9"/>
          <path id="Path_43479" data-name="Path 43479" d="M434.624,279.971,437.8,281.8c.188.108.164.3-.052.422l-1.376.794a.81.81,0,0,1-.731.03l-3.174-1.832c-.187-.108-.164-.3.053-.422l1.375-.794A.813.813,0,0,1,434.624,279.971Z" transform="translate(-374.472 -236.809)" fill="#b9dff9"/>
        </g>
        <g id="Group_65094" data-name="Group 65094" transform="translate(87.543 23.723)">
          <path id="Path_43480" data-name="Path 43480" d="M458.014,155.814,429.4,139.294l.368-1.86,28.615,16.521Z" transform="translate(-427.79 -137.433)" fill="url(#linear-gradient-2)"/>
          <path id="Path_43481" data-name="Path 43481" d="M446.411,165.794l-19.975-11.532.368-1.86,19.975,11.533Z" transform="translate(-426.436 -144.274)" fill="url(#linear-gradient-2)"/>
          <path id="Path_43482" data-name="Path 43482" d="M445.2,156.755l-17.281-9.977.368-1.86,17.281,9.977Z" transform="translate(-427.113 -140.854)" fill="url(#linear-gradient-2)"/>
          <path id="Path_43483" data-name="Path 43483" d="M473.345,173.006l-8.64-4.988.368-1.86,8.64,4.988Z" transform="translate(-443.926 -150.561)" fill="url(#linear-gradient-2)"/>
        </g>
        <path id="Path_43484" data-name="Path 43484" d="M462.077,204.965l-5.055,23.968-18.153-10.475,3.965-7.789Z" transform="translate(-344.575 -144.257)" fill="#0a2d60"/>
        <path id="Path_43485" data-name="Path 43485" d="M374.849,249.442h0a7.574,7.574,0,0,1,0-13.118l25.38-14.653,25.8,14.9-22.3,12.874A28.883,28.883,0,0,1,374.849,249.442Z" transform="translate(-313.585 -151.772)" fill="#5793ce"/>
        <path id="Path_43486" data-name="Path 43486" d="M413.393,130.361l-8.927-5.154.38-1.922,8.927,5.154Z" transform="translate(-328.852 -107.444)" fill="#d4ecff"/>
        <path id="Path_43487" data-name="Path 43487" d="M411.93,137.865,403,132.711l.38-1.922,8.927,5.154Z" transform="translate(-328.184 -110.874)" fill="#fff"/>
        <path id="Path_43488" data-name="Path 43488" d="M271.857,175.562h.009c-4.085-2.269-6.636-7.241-6.658-14.356-.045-14.086,9.826-31.308,22-38.39L296,117.707h0l.424.238,40.309,22.669-10.212,6.637-3.833,2.805-5.278,5.514-.848.774-5.618,8.509-2.06,5.329-1.528,4.236L306.1,183.3l-.086.767.453,3.747,1.3,4.639,1.828,3.143,2.66,3.157Z" transform="translate(-265.208 -104.895)" fill="#1656bc"/>
        <path id="Path_43489" data-name="Path 43489" d="M384.853,159.578l0,1.492L358.109,176.6a9.479,9.479,0,0,1,2.185-2.765Z" transform="translate(-307.665 -123.742)" fill="#d4ecff"/>
        <path id="Path_43490" data-name="Path 43490" d="M417.384,182.731l-40.31-23.152-24.4,14.649-3.055,3.556-4.588,8.061-2.882,8.058-.939,6.3-.118,6.289,3.937,9,5.119,2.991,5.264.273,6.314-2.62,49.908-29.36Z" transform="translate(-299.886 -123.594)" fill="#d4ecff"/>
        <path id="Path_43491" data-name="Path 43491" d="M272.047,214.96c-3.418-1.9-5.755-5.7-6.442-11.05l41.114,23.565,1.224,4.38L309.77,235l2.66,3.157-40.392-23.2Z" transform="translate(-265.389 -143.731)" fill="#1656bc"/>
        <g id="Group_65096" data-name="Group 65096" transform="translate(0 36.16)">
          <path id="Path_43492" data-name="Path 43492" d="M265.579,199.5a25.591,25.591,0,0,1-.371-4.335c0-1.037.053-2.093.155-3.158L306.348,215.5l-.25,1.765-.086.767.453,3.747.384,1.376Z" transform="translate(-265.208 -174.569)" fill="#173d7a"/>
          <path id="Path_43493" data-name="Path 43493" d="M416.638,184.367l0-1.492-55.028,31.978c-11.465,6.668-20.828,1.3-20.87-11.962s9.253-29.48,20.718-36.148l9.21-5.356,0-1.492-9.211,5.356c-12.177,7.081-22.047,24.3-22,38.39s9.987,19.786,22.164,12.7Z" transform="translate(-299.136 -159.894)" fill="#173d7a"/>
        </g>
        <path id="Path_43494" data-name="Path 43494" d="M419,198.073l-24.776-14.448-1.554.888,24.776,14.448Z" transform="translate(-323.459 -134.633)" fill="#5793ce"/>
        <path id="Path_43495" data-name="Path 43495" d="M424.023,186.561l-17.3-10.085-1.554.888,17.3,10.085Z" transform="translate(-329.175 -131.408)" fill="#5793ce"/>
        <path id="Path_43496" data-name="Path 43496" d="M415.437,188.775l-14.963-8.725-1.554.888,14.962,8.725Z" transform="translate(-326.317 -133.031)" fill="#5793ce"/>
        <path id="Path_43497" data-name="Path 43497" d="M439.809,202.987l-7.481-4.362-1.554.888,7.481,4.362Z" transform="translate(-340.875 -141.456)" fill="#5793ce"/>
        <path id="Path_43506" data-name="Path 43506" d="M317.168,344.863l-8.324-4.806,8.324-4.806,8.324,4.806Z" transform="translate(-285.15 -203.317)" fill="rgba(0,155,255,0.15)" opacity="0.152"/>
        <g id="Group_65102" data-name="Group 65102" transform="translate(48.865 53.621)">
          <ellipse id="Ellipse_634" data-name="Ellipse 634" cx="12.649" cy="7.303" rx="12.649" ry="7.303" transform="translate(0 6.081)" fill="#5793ce"/>
          <path id="Path_43510" data-name="Path 43510" d="M380.5,203.633v-2.326h-.671a8.077,8.077,0,0,0-3.034-2.838c-4.94-2.852-12.948-2.852-17.888,0a8.073,8.073,0,0,0-3.034,2.838h-.67v2.307h0c-.008,1.875,1.225,3.752,3.7,5.183,4.94,2.852,12.948,2.852,17.888,0C379.266,207.371,380.5,205.5,380.5,203.633Z" transform="translate(-355.203 -194.005)" fill="#05a"/>
          <ellipse id="Ellipse_635" data-name="Ellipse 635" cx="12.649" cy="7.303" rx="12.649" ry="7.303" transform="translate(0 0)" fill="#00acea"/>
          <path id="Path_43511" data-name="Path 43511" d="M376.807,210.855c-4.94,2.852-12.948,2.852-17.888,0-2.367-1.367-3.587-3.141-3.685-4.931-.107,1.946,1.113,3.911,3.685,5.4,4.94,2.852,12.948,2.852,17.888,0,2.572-1.485,3.792-3.45,3.685-5.4C380.394,207.715,379.174,209.489,376.807,210.855Z" transform="translate(-355.214 -198.389)" fill="#fff"/>
        </g>
        <g id="Group_65103" data-name="Group 65103" transform="translate(55.085 57.442)">
          <path id="Path_43512" data-name="Path 43512" d="M366.989,205a.568.568,0,0,1-.333-.466l.013-4.758c0-.363.511-.656,1.14-.656s1.137.295,1.136.659l-.01,3.945,11.45-1.4c.615-.075,1.219.152,1.35.507s-.263.7-.877.78l-12.827,1.57a1.8,1.8,0,0,1-.954-.132C367.046,205.031,367.017,205.016,366.989,205Z" transform="translate(-366.656 -199.12)" fill="#fff"/>
        </g>
        <path id="Path_43513" data-name="Path 43513" d="M478.929,183.349a.886.886,0,0,1-1.276.393,1.11,1.11,0,0,1-.457-1.393.885.885,0,0,1,1.276-.393A1.111,1.111,0,0,1,478.929,183.349Z" transform="translate(-362.048 -133.855)" fill="#009bff"/>
        <path id="Path_43514" data-name="Path 43514" d="M484.558,186.6a.885.885,0,0,1-1.276.393,1.111,1.111,0,0,1-.457-1.393.885.885,0,0,1,1.276-.393A1.11,1.11,0,0,1,484.558,186.6Z" transform="translate(-364.621 -135.327)" fill="#fff"/>
        <path id="Path_43515" data-name="Path 43515" d="M490.187,189.85a.885.885,0,0,1-1.276.393,1.11,1.11,0,0,1-.457-1.393.886.886,0,0,1,1.276-.393A1.111,1.111,0,0,1,490.187,189.85Z" transform="translate(-367.194 -136.8)" fill="#d4ecff"/>
        <path id="Path_43516" data-name="Path 43516" d="M495.817,193.1a.886.886,0,0,1-1.276.393,1.111,1.111,0,0,1-.457-1.394.886.886,0,0,1,1.276-.393A1.111,1.111,0,0,1,495.817,193.1Z" transform="translate(-369.766 -138.272)" fill="#009bff"/>
      </g>
      <path id="Path_43542" data-name="Path 43542" d="M88.755,0H0V156.613Z" transform="translate(451.726 156.613) rotate(180)" fill="rgba(228,228,228,0.06)" opacity="0.497"/>
      <g id="Group_65152" data-name="Group 65152" transform="translate(189.377 15.859)">
        <g id="Group_65145" data-name="Group 65145" transform="translate(0 0)">
          <g id="Group_65143" data-name="Group 65143" transform="translate(26.614)">
            <path id="Path_43686" data-name="Path 43686" d="M341.34,108.108l-3.312-1.912,12.21-7.049a.638.638,0,0,0,0-1.208l-12.473-7.2a2.311,2.311,0,0,0-2.091,0l-12.21,7.049-3.312-1.912,12.21-7.049a9.646,9.646,0,0,1,8.715,0l12.473,7.2c2.4,1.388,2.4,3.644,0,5.031Z" transform="translate(-320.152 -87.785)" fill="url(#linear-gradient-2)"/>
          </g>
          <g id="Group_65144" data-name="Group 65144" transform="translate(0 3.511)">
            <path id="Path_43695" data-name="Path 43695" d="M319.513,118.1l-.7-.394h0l-14.574,8.476A62.505,62.505,0,0,0,290.7,137.075l24.958,14.409,31.193-18.009Z" transform="translate(-289.625 -113.286)" fill="#173d7a"/>
            <path id="Path_43687" data-name="Path 43687" d="M333.242,110.767a5.756,5.756,0,0,0-2.4-4.593L308.716,93.4a1.543,1.543,0,0,0-1.558-.133h0l-26.413,15.349,25.543,19.247,26.022-15.1a1.2,1.2,0,0,0,.23-.134h0A2.26,2.26,0,0,0,333.242,110.767Z" transform="translate(-280.097 -93.114)" fill="#d4ecff"/>
            <path id="Path_43688" data-name="Path 43688" d="M317.772,135.677l26.022-15.1a1.2,1.2,0,0,0,.23-.134h0a2.26,2.26,0,0,0,.7-1.859,5.9,5.9,0,0,0-.648-2.558l-29.663,17.126Z" transform="translate(-291.582 -100.928)" fill="#5793ce"/>
            <path id="Path_43689" data-name="Path 43689" d="M304.288,135.668,282.166,122.9a5.757,5.757,0,0,1-2.4-4.593h0c0-1.77,1.077-2.584,2.4-1.818l22.122,12.772a5.757,5.757,0,0,1,2.4,4.593h0C306.692,135.621,305.616,136.435,304.288,135.668Z" transform="translate(-279.762 -100.987)" fill="#5793ce"/>
            <path id="Path_43690" data-name="Path 43690" d="M305.114,129.074,282.992,116.3a1.526,1.526,0,0,0-1.59-.113,1.673,1.673,0,0,1,1.324.233L304.847,129.2a5.757,5.757,0,0,1,2.4,4.593h0a2.143,2.143,0,0,1-.814,1.93c.651-.2,1.081-.933,1.081-2.051h0A5.759,5.759,0,0,0,305.114,129.074Z" transform="translate(-280.321 -100.926)" fill="#fff"/>
          </g>
          <path id="Path_43691" data-name="Path 43691" d="M310.331,137.725l-2.66-1.534a1.147,1.147,0,0,1-.479-.916h0c0-.353.214-.515.479-.362l2.66,1.534a1.149,1.149,0,0,1,.479.916h0C310.81,137.716,310.6,137.878,310.331,137.725Z" transform="translate(-289.118 -103.84)" fill="#fff"/>
        </g>
        <g id="Group_65146" data-name="Group 65146" transform="translate(20.675 13.703)">
          <path id="Path_43692" data-name="Path 43692" d="M314.677,110.6a.891.891,0,0,0-.018-1.687,3.229,3.229,0,0,0-2.923.03.891.891,0,0,0,.018,1.687A3.23,3.23,0,0,0,314.677,110.6Z" transform="translate(-311.14 -108.582)" fill="#5793ce"/>
          <path id="Path_43693" data-name="Path 43693" d="M321.437,114.413a.891.891,0,0,0-.017-1.687,3.231,3.231,0,0,0-2.924.03.891.891,0,0,0,.018,1.687A3.229,3.229,0,0,0,321.437,114.413Z" transform="translate(-313.446 -109.881)" fill="#fff"/>
          <path id="Path_43694" data-name="Path 43694" d="M328.2,118.222a.891.891,0,0,0-.017-1.687,3.233,3.233,0,0,0-2.924.03.891.891,0,0,0,.018,1.688A3.231,3.231,0,0,0,328.2,118.222Z" transform="translate(-315.751 -111.181)" fill="#fff"/>
        </g>
      </g>
      <g id="Group_65153" data-name="Group 65153" transform="translate(290.606 115.597)">
        <path id="Path_43648" data-name="Path 43648" d="M430.5,312.252l40.966-23.668c.993-.573.868-1.575-.278-2.237h0a4.306,4.306,0,0,0-3.875-.161l-40.966,23.668c-.993.573-.868,1.575.278,2.237h0A4.307,4.307,0,0,0,430.5,312.252Z" transform="translate(-422.332 -280.414)" fill="rgba(239,239,239,0.1)"/>
        <g id="Group_65134" data-name="Group 65134">
          <path id="Path_43649" data-name="Path 43649" d="M540.463,272.937h0a.158.158,0,0,0-.168-.076l-2.181.45.843,1.466,1.487-1.657A.157.157,0,0,0,540.463,272.937Z" transform="translate(-487.982 -272.858)" fill="#009bff"/>
          <g id="Group_65128" data-name="Group 65128" transform="translate(26.182 0.226)">
            <path id="Path_43650" data-name="Path 43650" d="M530.235,274.321a1.088,1.088,0,0,0-.491-.853.357.357,0,0,0-.326-.044,13.9,13.9,0,0,0-7.176,1.845l-.158.091,2.658,4.626.8-.522a13.894,13.894,0,0,0,4.215-4.284l.347-.555A.356.356,0,0,0,530.235,274.321Z" transform="translate(-504.804 -273.402)" fill="#1656bc"/>
            <path id="Path_43651" data-name="Path 43651" d="M524.52,281.34a4.168,4.168,0,0,0-1.879-3.271c-1.041-.6-1.886-.118-1.888,1.085a4.168,4.168,0,0,0,1.879,3.271C523.672,283.028,524.517,282.542,524.52,281.34Z" transform="translate(-504.026 -275.975)" fill="#1656bc"/>
            <path id="Path_43652" data-name="Path 43652" d="M485.273,292.57l16.142-9.836-2.658-4.626-16.625,9Z" transform="translate(-481.477 -276.15)" fill="#1656bc"/>
            <path id="Path_43653" data-name="Path 43653" d="M485.009,303.546a4.926,4.926,0,0,0-2.221-3.865c-1.229-.713-2.228-.139-2.231,1.282a4.926,4.926,0,0,0,2.221,3.865C484.007,305.541,485.006,304.967,485.009,303.546Z" transform="translate(-480.557 -288.567)" fill="#1656bc"/>
          </g>
          <g id="Group_65129" data-name="Group 65129" transform="translate(3.913 11.563)">
            <path id="Path_43654" data-name="Path 43654" d="M482.8,304.817a4.925,4.925,0,0,0-2.221-3.865c-1.229-.713-2.228-.139-2.231,1.282a4.927,4.927,0,0,0,2.22,3.865C481.8,306.812,482.794,306.238,482.8,304.817Z" transform="translate(-456.996 -300.646)" fill="#d4ecff"/>
            <rect id="Rectangle_143951" data-name="Rectangle 143951" width="24.622" height="6.304" transform="translate(0.656 12.413) rotate(-29.88)" fill="#d4ecff"/>
            <path id="Path_43655" data-name="Path 43655" d="M431.493,334.294a4.926,4.926,0,0,0-2.221-3.865c-1.229-.713-2.228-.139-2.231,1.282a4.926,4.926,0,0,0,2.22,3.865C430.491,336.29,431.49,335.716,431.493,334.294Z" transform="translate(-427.041 -317.857)" fill="#d4ecff"/>
            <path id="Path_43656" data-name="Path 43656" d="M431.811,335.444a3.257,3.257,0,0,0-1.5-2.349c-.789-.458-1.4-.149-1.356.691a3.255,3.255,0,0,0,1.5,2.349C431.245,336.592,431.851,336.283,431.811,335.444Z" transform="translate(-428.156 -319.469)" fill="#396caa"/>
          </g>
          <g id="Group_65130" data-name="Group 65130" transform="translate(25.134 10.655)">
            <path id="Path_43657" data-name="Path 43657" d="M486.675,302.921a4.926,4.926,0,0,0-2.221-3.865,1.742,1.742,0,0,0-1.322-.261,1.422,1.422,0,0,1,1.809-.026,4.926,4.926,0,0,1,2.221,3.865c0,.849-.36,1.392-.91,1.543A1.76,1.76,0,0,0,486.675,302.921Z" transform="translate(-481.014 -298.464)" fill="#fff"/>
            <path id="Path_43658" data-name="Path 43658" d="M484.622,303.322a4.926,4.926,0,0,0-2.221-3.865,1.567,1.567,0,0,0-1.575-.159l-1.21.695.563.981a5.03,5.03,0,0,0,2.014,3.5l.563.981,1.21-.695h0A1.567,1.567,0,0,0,484.622,303.322Z" transform="translate(-478.96 -298.865)" fill="#5793ce"/>
            <path id="Path_43659" data-name="Path 43659" d="M482.492,304.992a4.926,4.926,0,0,0-2.221-3.865c-1.229-.713-2.228-.139-2.231,1.282a4.926,4.926,0,0,0,2.22,3.865C481.49,306.987,482.489,306.413,482.492,304.992Z" transform="translate(-478.04 -299.84)" fill="#d4ecff"/>
          </g>
          <g id="Group_65131" data-name="Group 65131" transform="translate(0 25.738)">
            <path id="Path_43660" data-name="Path 43660" d="M424.2,337.22l-1.355-2.358-4.525,2.6a1.36,1.36,0,0,0-.5,1.857h0a1.36,1.36,0,0,0,1.857.5Z" transform="translate(-417.638 -334.799)" fill="#009bff"/>
            <path id="Path_43661" data-name="Path 43661" d="M431.394,336.509a2.126,2.126,0,0,0-.958-1.668c-.53-.308-.961-.06-.963.553a2.127,2.127,0,0,0,.958,1.667C430.961,337.37,431.393,337.122,431.394,336.509Z" transform="translate(-424.548 -334.71)" fill="#009bff"/>
          </g>
          <g id="Group_65133" data-name="Group 65133" transform="translate(5.823 12.672)">
            <path id="Path_43662" data-name="Path 43662" d="M437.736,309.949l-.671-.389a1.437,1.437,0,0,0-1.445.14l-2.325,1.336a1.76,1.76,0,0,0-.8,1.375l0,1.157a.95.95,0,0,1-.238.579l.081.537-.573-.336h0a.3.3,0,0,1-.135-.283l0-1.157a3.67,3.67,0,0,1,1.664-2.868l2.325-1.336a2.044,2.044,0,0,1,2.055-.2l.67.39a1.435,1.435,0,0,0,1.445-.14l9.373-5.385a.3.3,0,0,1,.308-.027h0l.572.335-.494.184a.952.952,0,0,1-.388.5l-9.373,5.385A2.042,2.042,0,0,1,437.736,309.949Z" transform="translate(-431.631 -303.31)" fill="#5793ce"/>
            <path id="Path_43663" data-name="Path 43663" d="M438.46,310.376a1.436,1.436,0,0,0-1.444.14l-2.325,1.336a1.76,1.76,0,0,0-.8,1.375l0,1.157a.954.954,0,0,1-.433.747c-.238.137-.432.025-.431-.25l0-1.157a3.67,3.67,0,0,1,1.664-2.868l2.325-1.336a2.044,2.044,0,0,1,2.055-.2l.67.39a1.435,1.435,0,0,0,1.445-.14l9.373-5.385c.238-.137.432-.025.431.25a.953.953,0,0,1-.433.746l-9.373,5.385a2.042,2.042,0,0,1-2.055.2Z" transform="translate(-432.446 -303.787)" fill="#5793ce"/>
            <g id="Group_65132" data-name="Group 65132" transform="translate(1.41 9.341)">
              <path id="Path_43664" data-name="Path 43664" d="M435.025,326.048l0,1.157c0,.007,0,.016,0,.024a.745.745,0,0,0,.034-.214l0-1.157c0-.033.005-.067.009-.1A1.285,1.285,0,0,0,435.025,326.048Z" transform="translate(-435.019 -325.757)" fill="#fff"/>
            </g>
          </g>
        </g>
        <path id="Path_43665" data-name="Path 43665" d="M420.966,348.414l4.286-2.475c.517-.3.452-.819-.145-1.164h0a2.241,2.241,0,0,0-2.016-.084l-4.286,2.474c-.517.3-.452.82.145,1.164h0A2.241,2.241,0,0,0,420.966,348.414Z" transform="translate(-418.115 -314.683)" fill="#efefef" opacity="0.079"/>
      </g>
    </g>
    <g id="Group_77240" data-name="Group 77240" transform="translate(1138.973 107.982)">
      <g id="Group_77238" data-name="Group 77238" transform="translate(0 0)">
        <g id="Group_77217" data-name="Group 77217" transform="translate(316.335 31.141)">
          <path id="Path_56729" data-name="Path 56729" d="M295.258,108.936a1.241,1.241,0,0,1,.009,2.077,2.339,2.339,0,0,1-2.705,0,1.243,1.243,0,0,1-.009-2.077A2.342,2.342,0,0,1,295.258,108.936Z" transform="translate(-291.997 -108.505)" fill="#007fff"/>
          <g id="Group_72255" data-name="Group 72255" transform="translate(0.227 3.206)" opacity="0.833">
            <path id="Path_56730" data-name="Path 56730" d="M295.1,111.354a1.1,1.1,0,0,1,.008,1.831,2.059,2.059,0,0,1-2.384,0,1.1,1.1,0,0,1-.008-1.831A2.066,2.066,0,0,1,295.1,111.354Z" transform="translate(-292.228 -110.975)" fill="#007fff"/>
          </g>
          <g id="Group_72256" data-name="Group 72256" transform="translate(0.454 6.411)" opacity="0.667">
            <path id="Path_56731" data-name="Path 56731" d="M294.948,113.773a.947.947,0,0,1,.007,1.585,1.785,1.785,0,0,1-2.064,0,.948.948,0,0,1-.007-1.585A1.787,1.787,0,0,1,294.948,113.773Z" transform="translate(-292.46 -113.445)" fill="#007fff"/>
          </g>
          <g id="Group_72257" data-name="Group 72257" transform="translate(0.68 9.617)" opacity="0.5">
            <path id="Path_56732" data-name="Path 56732" d="M294.793,116.191a.8.8,0,0,1,.006,1.339,1.507,1.507,0,0,1-1.744,0,.8.8,0,0,1-.006-1.339A1.513,1.513,0,0,1,294.793,116.191Z" transform="translate(-292.691 -115.915)" fill="#007fff"/>
          </g>
          <g id="Group_72258" data-name="Group 72258" transform="translate(0.906 12.823)" opacity="0.333">
            <path id="Path_56733" data-name="Path 56733" d="M294.638,118.611a.653.653,0,0,1,0,1.093,1.23,1.23,0,0,1-1.424,0,.655.655,0,0,1,0-1.094A1.235,1.235,0,0,1,294.638,118.611Z" transform="translate(-292.922 -118.385)" fill="#007fff"/>
          </g>
          <g id="Group_72259" data-name="Group 72259" transform="translate(1.133 16.029)" opacity="0.167">
            <path id="Path_56734" data-name="Path 56734" d="M294.484,121.03a.506.506,0,0,1,0,.848.954.954,0,0,1-1.1,0,.507.507,0,0,1,0-.848A.956.956,0,0,1,294.484,121.03Z" transform="translate(-293.154 -120.855)" fill="#007fff"/>
          </g>
          <g id="Group_72260" data-name="Group 72260" transform="translate(1.359 19.233)" opacity="0">
            <path id="Path_56735" data-name="Path 56735" d="M294.329,123.449a.36.36,0,0,1,0,.6.678.678,0,0,1-.783,0,.361.361,0,0,1,0-.6A.678.678,0,0,1,294.329,123.449Z" transform="translate(-293.385 -123.324)" fill="#007fff"/>
          </g>
        </g>
        <g id="Group_77219" data-name="Group 77219" transform="translate(30.992 45.773)">
          <path id="Path_56750" data-name="Path 56750" d="M209.411,126.11a1.145,1.145,0,0,1,.007,1.87,1.946,1.946,0,0,1-2.332,0,1.147,1.147,0,0,1-.007-1.87A1.948,1.948,0,0,1,209.411,126.11Z" transform="translate(-206.6 -125.722)" fill="#007fff"/>
          <g id="Group_72276" data-name="Group 72276" transform="translate(0.21 4.578)" opacity="0.833">
            <path id="Path_56751" data-name="Path 56751" d="M209.277,129.587a1,1,0,0,1,.007,1.632,1.7,1.7,0,0,1-2.035,0,1,1,0,0,1-.007-1.632A1.7,1.7,0,0,1,209.277,129.587Z" transform="translate(-206.825 -129.25)" fill="#007fff"/>
          </g>
          <g id="Group_72277" data-name="Group 72277" transform="translate(0.421 9.156)" opacity="0.667">
            <path id="Path_56752" data-name="Path 56752" d="M209.143,133.065a.853.853,0,0,1,.006,1.393,1.45,1.45,0,0,1-1.736,0,.854.854,0,0,1-.006-1.393A1.452,1.452,0,0,1,209.143,133.065Z" transform="translate(-207.049 -132.777)" fill="#007fff"/>
          </g>
          <g id="Group_72278" data-name="Group 72278" transform="translate(0.632 13.734)" opacity="0.5">
            <path id="Path_56753" data-name="Path 56753" d="M209.008,136.543a.707.707,0,0,1,0,1.154,1.2,1.2,0,0,1-1.439,0,.708.708,0,0,1,0-1.154A1.2,1.2,0,0,1,209.008,136.543Z" transform="translate(-207.274 -136.304)" fill="#007fff"/>
          </g>
          <g id="Group_72279" data-name="Group 72279" transform="translate(0.842 18.311)" opacity="0.333">
            <path id="Path_56754" data-name="Path 56754" d="M208.873,140.021a.56.56,0,0,1,0,.915.954.954,0,0,1-1.141,0,.562.562,0,0,1,0-.915A.952.952,0,0,1,208.873,140.021Z" transform="translate(-207.498 -139.831)" fill="#007fff"/>
          </g>
          <g id="Group_72280" data-name="Group 72280" transform="translate(1.053 22.89)" opacity="0.167">
            <path id="Path_56755" data-name="Path 56755" d="M208.739,143.5a.414.414,0,0,1,0,.676.706.706,0,0,1-.843,0,.415.415,0,0,1,0-.676A.7.7,0,0,1,208.739,143.5Z" transform="translate(-207.723 -143.358)" fill="#007fff"/>
          </g>
          <g id="Group_72281" data-name="Group 72281" transform="translate(1.263 27.466)" opacity="0">
            <path id="Path_56756" data-name="Path 56756" d="M208.605,146.975a.269.269,0,0,1,0,.439.456.456,0,0,1-.546,0,.27.27,0,0,1,0-.439A.456.456,0,0,1,208.605,146.975Z" transform="translate(-207.948 -146.884)" fill="#007fff"/>
          </g>
        </g>
        <g id="Group_77220" data-name="Group 77220" transform="translate(289.476 72.274)">
          <path id="Path_56809" data-name="Path 56809" d="M263.424,150.985a1.7,1.7,0,0,1,.01,2.654,2.42,2.42,0,0,1-3.075,0,1.7,1.7,0,0,1-.01-2.654A2.423,2.423,0,0,1,263.424,150.985Z" transform="translate(-259.718 -150.435)" fill="#007fff"/>
          <g id="Group_72335" data-name="Group 72335" transform="translate(0.278 5.263)" opacity="0.833">
            <path id="Path_56810" data-name="Path 56810" d="M263.27,154.969a1.484,1.484,0,0,1,.009,2.316,2.112,2.112,0,0,1-2.682,0,1.484,1.484,0,0,1-.009-2.316A2.117,2.117,0,0,1,263.27,154.969Z" transform="translate(-260.037 -154.49)" fill="#007fff"/>
          </g>
          <g id="Group_72336" data-name="Group 72336" transform="translate(0.555 10.525)" opacity="0.667">
            <path id="Path_56811" data-name="Path 56811" d="M263.115,158.953a1.266,1.266,0,0,1,.008,1.977,1.8,1.8,0,0,1-2.29,0,1.267,1.267,0,0,1-.007-1.977A1.807,1.807,0,0,1,263.115,158.953Z" transform="translate(-260.355 -158.544)" fill="#007fff"/>
          </g>
          <g id="Group_72337" data-name="Group 72337" transform="translate(0.833 15.786)" opacity="0.5">
            <path id="Path_56812" data-name="Path 56812" d="M262.961,162.937a1.049,1.049,0,0,1,.006,1.638,1.5,1.5,0,0,1-1.9,0,1.051,1.051,0,0,1-.006-1.638A1.5,1.5,0,0,1,262.961,162.937Z" transform="translate(-260.675 -162.598)" fill="#007fff"/>
          </g>
          <g id="Group_72338" data-name="Group 72338" transform="translate(1.11 21.048)" opacity="0.333">
            <path id="Path_56813" data-name="Path 56813" d="M262.807,166.921a.832.832,0,0,1,0,1.3,1.185,1.185,0,0,1-1.5,0,.833.833,0,0,1-.005-1.3A1.188,1.188,0,0,1,262.807,166.921Z" transform="translate(-260.993 -166.652)" fill="#007fff"/>
          </g>
          <g id="Group_72339" data-name="Group 72339" transform="translate(1.388 26.31)" opacity="0.167">
            <path id="Path_56814" data-name="Path 56814" d="M262.652,170.9a.615.615,0,0,1,0,.96.875.875,0,0,1-1.111,0,.616.616,0,0,1,0-.96A.878.878,0,0,1,262.652,170.9Z" transform="translate(-261.312 -170.706)" fill="#007fff"/>
          </g>
          <g id="Group_72340" data-name="Group 72340" transform="translate(1.666 31.572)" opacity="0">
            <path id="Path_56815" data-name="Path 56815" d="M262.5,174.888a.4.4,0,0,1,0,.622.568.568,0,0,1-.719,0,.4.4,0,0,1,0-.622A.568.568,0,0,1,262.5,174.888Z" transform="translate(-261.631 -174.76)" fill="#007fff"/>
          </g>
        </g>
        <g id="Group_77237" data-name="Group 77237" transform="translate(361.656 10.103)">
          <path id="Path_56809-2" data-name="Path 56809" d="M263.424,150.985a1.7,1.7,0,0,1,.01,2.654,2.42,2.42,0,0,1-3.075,0,1.7,1.7,0,0,1-.01-2.654A2.423,2.423,0,0,1,263.424,150.985Z" transform="translate(-259.718 -150.435)" fill="url(#linear-gradient-7)"/>
          <g id="Group_72335-2" data-name="Group 72335" transform="translate(0.278 5.263)" opacity="0.833">
            <path id="Path_56810-2" data-name="Path 56810" d="M263.27,154.969a1.484,1.484,0,0,1,.009,2.316,2.112,2.112,0,0,1-2.682,0,1.484,1.484,0,0,1-.009-2.316A2.117,2.117,0,0,1,263.27,154.969Z" transform="translate(-260.037 -154.49)" fill="url(#linear-gradient-7)"/>
          </g>
          <g id="Group_72336-2" data-name="Group 72336" transform="translate(0.555 10.525)" opacity="0.667">
            <path id="Path_56811-2" data-name="Path 56811" d="M263.115,158.953a1.266,1.266,0,0,1,.008,1.977,1.8,1.8,0,0,1-2.29,0,1.267,1.267,0,0,1-.007-1.977A1.807,1.807,0,0,1,263.115,158.953Z" transform="translate(-260.355 -158.544)" fill="url(#linear-gradient-7)"/>
          </g>
          <g id="Group_72337-2" data-name="Group 72337" transform="translate(0.833 15.786)" opacity="0.5">
            <path id="Path_56812-2" data-name="Path 56812" d="M262.961,162.937a1.049,1.049,0,0,1,.006,1.638,1.5,1.5,0,0,1-1.9,0,1.051,1.051,0,0,1-.006-1.638A1.5,1.5,0,0,1,262.961,162.937Z" transform="translate(-260.675 -162.598)" fill="url(#linear-gradient-7)"/>
          </g>
          <g id="Group_72338-2" data-name="Group 72338" transform="translate(1.11 21.048)" opacity="0.333">
            <path id="Path_56813-2" data-name="Path 56813" d="M262.807,166.921a.832.832,0,0,1,0,1.3,1.185,1.185,0,0,1-1.5,0,.833.833,0,0,1-.005-1.3A1.188,1.188,0,0,1,262.807,166.921Z" transform="translate(-260.993 -166.652)" fill="url(#linear-gradient-7)"/>
          </g>
          <g id="Group_72339-2" data-name="Group 72339" transform="translate(1.388 26.31)" opacity="0.167">
            <path id="Path_56814-2" data-name="Path 56814" d="M262.652,170.9a.615.615,0,0,1,0,.96.875.875,0,0,1-1.111,0,.616.616,0,0,1,0-.96A.878.878,0,0,1,262.652,170.9Z" transform="translate(-261.312 -170.706)" fill="url(#linear-gradient-7)"/>
          </g>
          <g id="Group_72340-2" data-name="Group 72340" transform="translate(1.666 31.572)" opacity="0">
            <path id="Path_56815-2" data-name="Path 56815" d="M262.5,174.888a.4.4,0,0,1,0,.622.568.568,0,0,1-.719,0,.4.4,0,0,1,0-.622A.568.568,0,0,1,262.5,174.888Z" transform="translate(-261.631 -174.76)" fill="url(#linear-gradient-7)"/>
          </g>
        </g>
        <g id="Group_77222" data-name="Group 77222" transform="translate(76.501 69.654)">
          <path id="Path_56823" data-name="Path 56823" d="M210.93,66.231a.893.893,0,0,1,.005,1.447,1.476,1.476,0,0,1-1.784,0,.893.893,0,0,1-.006-1.447A1.477,1.477,0,0,1,210.93,66.231Z" transform="translate(-208.779 -65.931)" fill="#8bc4fc"/>
          <g id="Group_72349" data-name="Group 72349" transform="translate(0.157 5.18)" opacity="0.833">
            <path id="Path_56824" data-name="Path 56824" d="M210.846,70.184a.783.783,0,0,1,.005,1.268,1.3,1.3,0,0,1-1.563,0,.784.784,0,0,1-.005-1.268A1.3,1.3,0,0,1,210.846,70.184Z" transform="translate(-208.963 -69.922)" fill="#9ecefd"/>
          </g>
          <g id="Group_72350" data-name="Group 72350" transform="translate(0.314 10.361)" opacity="0.667">
            <path id="Path_56825" data-name="Path 56825" d="M210.763,74.139a.671.671,0,0,1,0,1.088,1.109,1.109,0,0,1-1.34,0,.672.672,0,0,1,0-1.088A1.111,1.111,0,0,1,210.763,74.139Z" transform="translate(-209.147 -73.914)" fill="#b2d8fd"/>
          </g>
          <g id="Group_72351" data-name="Group 72351" transform="translate(0.471 15.542)" opacity="0.5">
            <path id="Path_56826" data-name="Path 56826" d="M210.679,78.093a.56.56,0,0,1,0,.907.927.927,0,0,1-1.119,0,.56.56,0,0,1,0-.907A.926.926,0,0,1,210.679,78.093Z" transform="translate(-209.331 -77.905)" fill="#c5e2fe"/>
          </g>
          <g id="Group_72352" data-name="Group 72352" transform="translate(0.628 20.722)" opacity="0.333">
            <path id="Path_56827" data-name="Path 56827" d="M210.6,82.046a.45.45,0,0,1,0,.728.743.743,0,0,1-.9,0,.45.45,0,0,1,0-.728A.745.745,0,0,1,210.6,82.046Z" transform="translate(-209.516 -81.896)" fill="#d8ebfe"/>
          </g>
          <g id="Group_72353" data-name="Group 72353" transform="translate(0.785 25.903)" opacity="0.167">
            <path id="Path_56828" data-name="Path 56828" d="M210.513,86a.338.338,0,0,1,0,.548.559.559,0,0,1-.674,0,.338.338,0,0,1,0-.548A.561.561,0,0,1,210.513,86Z" transform="translate(-209.7 -85.888)" fill="#ecf5fe"/>
          </g>
          <g id="Group_72354" data-name="Group 72354" transform="translate(0.942 31.083)" opacity="0">
            <path id="Path_56829" data-name="Path 56829" d="M210.429,89.955a.227.227,0,0,1,0,.367.375.375,0,0,1-.453,0,.227.227,0,0,1,0-.367A.375.375,0,0,1,210.429,89.955Z" transform="translate(-209.884 -89.88)" fill="#fff"/>
          </g>
        </g>
        <g id="Group_77223" data-name="Group 77223" transform="translate(302.978 80.731)">
          <g id="Group_72391" data-name="Group 72391" transform="translate(4.903 8.777)">
            <g id="Group_72388" data-name="Group 72388" transform="translate(8.456 4.882)">
              <path id="Path_56969" data-name="Path 56969" d="M283.712,157.875l8.219-4.777-.027,9.717-8.219,4.776Z" transform="translate(-283.684 -153.099)" fill="url(#linear-gradient-14)"/>
            </g>
            <g id="Group_72389" data-name="Group 72389" transform="translate(0.028)">
              <path id="Path_56970" data-name="Path 56970" d="M277.19,154.114l8.219-4.777,8.456,4.882L285.646,159Z" transform="translate(-277.19 -149.337)" fill="url(#linear-gradient-14)"/>
            </g>
            <g id="Group_72390" data-name="Group 72390" transform="translate(0 4.776)">
              <path id="Path_56971" data-name="Path 56971" d="M285.653,157.9l-.028,9.717-8.456-4.882.028-9.717Z" transform="translate(-277.169 -153.017)" fill="url(#linear-gradient-14)"/>
            </g>
          </g>
          <g id="Group_72395" data-name="Group 72395" transform="translate(0 0)" opacity="0.5">
            <g id="Group_72392" data-name="Group 72392" transform="translate(13.359 7.713)">
              <path id="Path_56972" data-name="Path 56972" d="M283.727,156.256l13.316-7.739L297,163.867l-13.316,7.739Z" transform="translate(-283.683 -148.517)" fill="url(#linear-gradient-14)"/>
            </g>
            <g id="Group_72393" data-name="Group 72393" transform="translate(0.044)">
              <path id="Path_56973" data-name="Path 56973" d="M273.425,150.313l13.316-7.739,13.359,7.713-13.316,7.739Z" transform="translate(-273.425 -142.575)" fill="url(#linear-gradient-14)"/>
            </g>
            <g id="Group_72394" data-name="Group 72394" transform="translate(0 7.739)">
              <path id="Path_56974" data-name="Path 56974" d="M286.793,156.25l-.043,15.35-13.359-7.713.044-15.35Z" transform="translate(-273.391 -148.537)" fill="url(#linear-gradient-14)"/>
            </g>
          </g>
        </g>
        <g id="Group_77224" data-name="Group 77224" transform="translate(66.374 41.183)">
          <g id="Group_72400" data-name="Group 72400" transform="translate(3.281 5.874)">
            <g id="Group_72397" data-name="Group 72397" transform="translate(5.659 3.267)">
              <path id="Path_56975" data-name="Path 56975" d="M226.83,132.057l5.5-3.2-.018,6.5-5.5,3.2Z" transform="translate(-226.812 -128.861)" fill="url(#linear-gradient-14)"/>
            </g>
            <g id="Group_72398" data-name="Group 72398" transform="translate(0.018)">
              <path id="Path_56976" data-name="Path 56976" d="M222.466,129.54l5.5-3.2,5.659,3.267-5.5,3.2Z" transform="translate(-222.466 -126.343)" fill="url(#linear-gradient-14)"/>
            </g>
            <g id="Group_72399" data-name="Group 72399" transform="translate(0 3.197)">
              <path id="Path_56977" data-name="Path 56977" d="M228.129,132.073l-.018,6.5-5.659-3.267.018-6.5Z" transform="translate(-222.452 -128.806)" fill="url(#linear-gradient-14)"/>
            </g>
          </g>
          <g id="Group_72404" data-name="Group 72404" transform="translate(0 0)" opacity="0.5">
            <g id="Group_72401" data-name="Group 72401" transform="translate(8.94 5.161)">
              <path id="Path_56978" data-name="Path 56978" d="M226.841,130.973l8.911-5.179-.029,10.272-8.911,5.179Z" transform="translate(-226.812 -125.794)" fill="url(#linear-gradient-14)"/>
            </g>
            <g id="Group_72402" data-name="Group 72402" transform="translate(0.029)">
              <path id="Path_56979" data-name="Path 56979" d="M219.946,127l8.911-5.179,8.94,5.161-8.911,5.179Z" transform="translate(-219.946 -121.818)" fill="url(#linear-gradient-14)"/>
            </g>
            <g id="Group_72403" data-name="Group 72403" transform="translate(0 5.179)">
              <path id="Path_56980" data-name="Path 56980" d="M228.893,130.969l-.029,10.272-8.94-5.161.029-10.272Z" transform="translate(-219.924 -125.808)" fill="url(#linear-gradient-14)"/>
            </g>
          </g>
        </g>
        <g id="Group_77235" data-name="Group 77235" transform="translate(249.833 38.639)">
          <g id="Group_72400-2" data-name="Group 72400" transform="translate(2.271 4.066)">
            <g id="Group_72397-2" data-name="Group 72397" transform="translate(3.918 2.262)">
              <path id="Path_56975-2" data-name="Path 56975" d="M226.825,131.073l3.808-2.213-.013,4.5-3.808,2.213Z" transform="translate(-226.812 -128.861)" fill="url(#linear-gradient-14)"/>
            </g>
            <g id="Group_72398-2" data-name="Group 72398" transform="translate(0.013)">
              <path id="Path_56976-2" data-name="Path 56976" d="M222.466,128.556l3.808-2.213,3.918,2.262-3.808,2.213Z" transform="translate(-222.466 -126.343)" fill="url(#linear-gradient-14)"/>
            </g>
            <g id="Group_72399-2" data-name="Group 72399" transform="translate(0 2.213)">
              <path id="Path_56977-2" data-name="Path 56977" d="M226.382,131.068l-.013,4.5-3.918-2.262.013-4.5Z" transform="translate(-222.452 -128.806)" fill="url(#linear-gradient-14)"/>
            </g>
          </g>
          <g id="Group_72404-2" data-name="Group 72404" transform="translate(0 0)" opacity="0.5">
            <g id="Group_72401-2" data-name="Group 72401" transform="translate(6.189 3.573)">
              <path id="Path_56978-2" data-name="Path 56978" d="M226.832,129.38,233,125.794l-.02,7.111-6.169,3.585Z" transform="translate(-226.812 -125.794)" fill="url(#linear-gradient-14)"/>
            </g>
            <g id="Group_72402-2" data-name="Group 72402" transform="translate(0.02)">
              <path id="Path_56979-2" data-name="Path 56979" d="M219.946,125.4l6.169-3.585,6.189,3.573-6.169,3.585Z" transform="translate(-219.946 -121.818)" fill="url(#linear-gradient-14)"/>
            </g>
            <g id="Group_72403-2" data-name="Group 72403" transform="translate(0 3.585)">
              <path id="Path_56980-2" data-name="Path 56980" d="M226.133,129.381l-.02,7.111-6.189-3.573.02-7.111Z" transform="translate(-219.924 -125.808)" fill="url(#linear-gradient-14)"/>
            </g>
          </g>
        </g>
        <g id="Group_77225" data-name="Group 77225" transform="translate(268.082 5.212)">
          <g id="Group_72409" data-name="Group 72409" transform="translate(3.332 5.965)">
            <g id="Group_72406" data-name="Group 72406" transform="translate(5.747 3.318)">
              <path id="Path_56981" data-name="Path 56981" d="M268.7,80.343l5.586-3.246-.019,6.6-5.586,3.246Z" transform="translate(-268.685 -77.097)" fill="url(#linear-gradient-14)"/>
            </g>
            <g id="Group_72407" data-name="Group 72407" transform="translate(0.019)">
              <path id="Path_56982" data-name="Path 56982" d="M264.272,77.787l5.586-3.246,5.746,3.318L270.018,81.1Z" transform="translate(-264.272 -74.541)" fill="url(#linear-gradient-14)"/>
            </g>
            <g id="Group_72408" data-name="Group 72408" transform="translate(0 3.246)">
              <path id="Path_56983" data-name="Path 56983" d="M270.023,80.36l-.019,6.6-5.747-3.318.019-6.6Z" transform="translate(-264.257 -77.042)" fill="url(#linear-gradient-14)"/>
            </g>
          </g>
          <g id="Group_72413" data-name="Group 72413" transform="translate(0 0)" opacity="0.5">
            <g id="Group_72410" data-name="Group 72410" transform="translate(9.078 5.241)">
              <path id="Path_56984" data-name="Path 56984" d="M268.715,79.242l9.049-5.259-.03,10.431-9.049,5.259Z" transform="translate(-268.685 -73.983)" fill="url(#linear-gradient-14)"/>
            </g>
            <g id="Group_72411" data-name="Group 72411" transform="translate(0.03)">
              <path id="Path_56985" data-name="Path 56985" d="M261.713,75.2l9.05-5.259,9.078,5.241-9.049,5.259Z" transform="translate(-261.713 -69.945)" fill="url(#linear-gradient-14)"/>
            </g>
            <g id="Group_72412" data-name="Group 72412" transform="translate(0 5.259)">
              <path id="Path_56986" data-name="Path 56986" d="M270.8,79.238l-.03,10.432-9.078-5.241L261.72,74Z" transform="translate(-261.69 -73.997)" fill="url(#linear-gradient-14)"/>
            </g>
          </g>
        </g>
        <g id="Group_77228" data-name="Group 77228" transform="translate(96.727 0)">
          <g id="Group_72436" data-name="Group 72436" transform="translate(2.215 3.91)">
            <g id="Group_72433" data-name="Group 72433" transform="translate(3.815 2.202)">
              <path id="Path_56999" data-name="Path 56999" d="M231.991,97.32l3.708-2.155-.012,4.383-3.708,2.155Z" transform="translate(-231.979 -95.165)" fill="url(#linear-gradient-38)"/>
            </g>
            <g id="Group_72434" data-name="Group 72434" transform="translate(0.012)">
              <path id="Path_57000" data-name="Path 57000" d="M229.049,95.623l3.708-2.155,3.815,2.2-3.708,2.155Z" transform="translate(-229.049 -93.468)" fill="url(#linear-gradient-38)"/>
            </g>
            <g id="Group_72435" data-name="Group 72435" transform="translate(0 2.155)">
              <path id="Path_57001" data-name="Path 57001" d="M232.867,97.331l-.012,4.383-3.815-2.2.013-4.383Z" transform="translate(-229.04 -95.128)" fill="url(#linear-gradient-38)"/>
            </g>
          </g>
          <g id="Group_72440" data-name="Group 72440" transform="translate(0 0)" opacity="0.5">
            <g id="Group_72437" data-name="Group 72437" transform="translate(6.026 3.479)">
              <path id="Path_57002" data-name="Path 57002" d="M232,96.627,238,93.136l-.02,6.924-6.007,3.491Z" transform="translate(-231.976 -93.136)" fill="url(#linear-gradient-38)"/>
            </g>
            <g id="Group_72438" data-name="Group 72438" transform="translate(0.02)">
              <path id="Path_57003" data-name="Path 57003" d="M227.348,93.947l6.007-3.491,6.026,3.479-6.007,3.491Z" transform="translate(-227.348 -90.456)" fill="url(#linear-gradient-38)"/>
            </g>
            <g id="Group_72439" data-name="Group 72439" transform="translate(0 3.491)">
              <path id="Path_57004" data-name="Path 57004" d="M233.379,96.624l-.02,6.924-6.026-3.479.02-6.924Z" transform="translate(-227.333 -93.145)" fill="url(#linear-gradient-38)"/>
            </g>
          </g>
        </g>
        <g id="Group_77236" data-name="Group 77236" transform="translate(0 78.509)">
          <g id="Group_72436-2" data-name="Group 72436" transform="translate(2.215 3.91)">
            <g id="Group_72433-2" data-name="Group 72433" transform="translate(3.815 2.202)">
              <path id="Path_56999-2" data-name="Path 56999" d="M231.991,97.32l3.708-2.155-.012,4.383-3.708,2.155Z" transform="translate(-231.979 -95.165)" fill="url(#linear-gradient-38)"/>
            </g>
            <g id="Group_72434-2" data-name="Group 72434" transform="translate(0.012)">
              <path id="Path_57000-2" data-name="Path 57000" d="M229.049,95.623l3.708-2.155,3.815,2.2-3.708,2.155Z" transform="translate(-229.049 -93.468)" fill="url(#linear-gradient-38)"/>
            </g>
            <g id="Group_72435-2" data-name="Group 72435" transform="translate(0 2.155)">
              <path id="Path_57001-2" data-name="Path 57001" d="M232.867,97.331l-.012,4.383-3.815-2.2.013-4.383Z" transform="translate(-229.04 -95.128)" fill="url(#linear-gradient-38)"/>
            </g>
          </g>
          <g id="Group_72440-2" data-name="Group 72440" transform="translate(0 0)" opacity="0.5">
            <g id="Group_72437-2" data-name="Group 72437" transform="translate(6.026 3.479)">
              <path id="Path_57002-2" data-name="Path 57002" d="M232,96.627,238,93.136l-.02,6.924-6.007,3.491Z" transform="translate(-231.976 -93.136)" fill="url(#linear-gradient-38)"/>
            </g>
            <g id="Group_72438-2" data-name="Group 72438" transform="translate(0.02)">
              <path id="Path_57003-2" data-name="Path 57003" d="M227.348,93.947l6.007-3.491,6.026,3.479-6.007,3.491Z" transform="translate(-227.348 -90.456)" fill="url(#linear-gradient-38)"/>
            </g>
            <g id="Group_72439-2" data-name="Group 72439" transform="translate(0 3.491)">
              <path id="Path_57004-2" data-name="Path 57004" d="M233.379,96.624l-.02,6.924-6.026-3.479.02-6.924Z" transform="translate(-227.333 -93.145)" fill="url(#linear-gradient-38)"/>
            </g>
          </g>
        </g>
        <g id="Group_77230" data-name="Group 77230" transform="translate(142.409 104.725)">
          <g id="Group_72454" data-name="Group 72454" transform="translate(4.418 7.799)">
            <g id="Group_72451" data-name="Group 72451" transform="translate(7.609 4.393)">
              <path id="Path_57011" data-name="Path 57011" d="M261.409,120.971l7.4-4.3-.025,8.743-7.4,4.3Z" transform="translate(-261.384 -116.674)" fill="url(#linear-gradient-38)"/>
            </g>
            <g id="Group_72452" data-name="Group 72452" transform="translate(0.025)">
              <path id="Path_57012" data-name="Path 57012" d="M255.541,117.587l7.4-4.3,7.609,4.393-7.4,4.3Z" transform="translate(-255.541 -113.289)" fill="url(#linear-gradient-38)"/>
            </g>
            <g id="Group_72453" data-name="Group 72453" transform="translate(0 4.298)">
              <path id="Path_57013" data-name="Path 57013" d="M263.156,120.993l-.025,8.743-7.609-4.393.025-8.743Z" transform="translate(-255.522 -116.6)" fill="url(#linear-gradient-38)"/>
            </g>
          </g>
          <g id="Group_72458" data-name="Group 72458" transform="translate(0 0)" opacity="0.5">
            <g id="Group_72455" data-name="Group 72455" transform="translate(12.02 6.939)">
              <path id="Path_57014" data-name="Path 57014" d="M261.418,119.59l11.982-6.963-.039,13.811L261.379,133.4Z" transform="translate(-261.379 -112.627)" fill="url(#linear-gradient-38)"/>
            </g>
            <g id="Group_72456" data-name="Group 72456" transform="translate(0.039)">
              <path id="Path_57015" data-name="Path 57015" d="M252.149,114.243l11.981-6.963,12.02,6.939-11.982,6.963Z" transform="translate(-252.149 -107.28)" fill="url(#linear-gradient-38)"/>
            </g>
            <g id="Group_72457" data-name="Group 72457" transform="translate(0 6.963)">
              <path id="Path_57016" data-name="Path 57016" d="M264.177,119.584l-.039,13.811-12.02-6.939.039-13.811Z" transform="translate(-252.119 -112.645)" fill="url(#linear-gradient-38)"/>
            </g>
          </g>
        </g>
        <g id="Group_77226" data-name="Group 77226" transform="translate(200.908 92.403)">
          <g id="Group_72418" data-name="Group 72418" transform="translate(2.025 3.624)">
            <g id="Group_72415" data-name="Group 72415" transform="translate(3.491 2.016)">
              <path id="Path_56987" data-name="Path 56987" d="M226.113,62.953l3.394-1.972-.011,4.012L226.1,66.965Z" transform="translate(-226.102 -60.98)" fill="url(#linear-gradient-14)"/>
            </g>
            <g id="Group_72416" data-name="Group 72416" transform="translate(0.011)">
              <path id="Path_56988" data-name="Path 56988" d="M223.421,61.4l3.394-1.972,3.492,2.016-3.394,1.972Z" transform="translate(-223.421 -59.427)" fill="url(#linear-gradient-14)"/>
            </g>
            <g id="Group_72417" data-name="Group 72417" transform="translate(0 1.972)">
              <path id="Path_56989" data-name="Path 56989" d="M226.915,62.963l-.012,4.012-3.491-2.016.011-4.012Z" transform="translate(-223.412 -60.947)" fill="url(#linear-gradient-14)"/>
            </g>
          </g>
          <g id="Group_72422" data-name="Group 72422" transform="translate(0)" opacity="0.5">
            <g id="Group_72419" data-name="Group 72419" transform="translate(5.516 3.185)">
              <path id="Path_56990" data-name="Path 56990" d="M226.12,62.284l5.5-3.2-.018,6.338-5.5,3.2Z" transform="translate(-226.102 -59.089)" fill="url(#linear-gradient-14)"/>
            </g>
            <g id="Group_72420" data-name="Group 72420" transform="translate(0.018)">
              <path id="Path_56991" data-name="Path 56991" d="M221.866,59.83l5.5-3.2,5.516,3.185-5.5,3.2Z" transform="translate(-221.866 -56.635)" fill="url(#linear-gradient-14)"/>
            </g>
            <g id="Group_72421" data-name="Group 72421" transform="translate(0 3.195)">
              <path id="Path_56992" data-name="Path 56992" d="M227.386,62.282l-.018,6.338-5.516-3.185.018-6.338Z" transform="translate(-221.852 -59.097)" fill="url(#linear-gradient-14)"/>
            </g>
          </g>
        </g>
      </g>
    </g>
  </g>
</svg>
