<svg xmlns="http://www.w3.org/2000/svg" width="45" height="45" viewBox="0 0 45.939 33.628">
  <g id="Group_2572" data-name="Group 2572" transform="translate(-585 -341)">
    <path id="Path_1208" data-name="Path 1208" d="M89.443,116.392a40.921,40.921,0,0,1-21.214-.634c-4.406-1.436-8.815-3.782-11.407-7.764a17.493,17.493,0,0,0,.466,5.106,11.016,11.016,0,0,0,3.352,4.669,25.831,25.831,0,0,0,11.515,5.18,37.4,37.4,0,0,0,21.536-1.818c3.366-1.485,6.742-3.653,8.374-7.078.907-1.779.637-3.825.7-5.744C99.7,112.743,94.521,115.11,89.443,116.392Z" transform="translate(528.178 250.883)" fill="#fff"/>
    <path id="Path_1209" data-name="Path 1209" d="M68.457,114.2a38.372,38.372,0,0,0,20.947.606c4.269-1.132,8.57-3.047,11.432-6.532a7.874,7.874,0,0,0,1.085-8.6c-1.544-3.072-4.532-5.082-7.54-6.542a36.807,36.807,0,0,0-19.557-2.725,31.394,31.394,0,0,0-10.72,3.2c-2.624,1.429-5.17,3.348-6.473,6.115a7.914,7.914,0,0,0,.981,8.118C61.025,111.041,64.738,112.943,68.457,114.2Zm2.5-15.8,7.186-3.327a.908.908,0,0,1,.626-.033c.2.064.33.195.33.337v1.36h9.416a.823.823,0,0,1,.425.11.328.328,0,0,1,.176.266v3.2a.328.328,0,0,1-.176.266.823.823,0,0,1-.425.11H79.1v1.36c0,.142-.129.273-.331.337a.911.911,0,0,1-.627-.034l-7.186-3.348a.31.31,0,0,1,0-.606Zm-.278,7.323a.347.347,0,0,1,.185-.281.871.871,0,0,1,.449-.117h8.669v-1.338c0-.15.136-.289.349-.356a.968.968,0,0,1,.664.036l7.186,3.348a.328.328,0,0,1,0,.64l-7.186,3.327a.966.966,0,0,1-.663.035c-.214-.068-.349-.206-.349-.356v-1.338H71.309a.871.871,0,0,1-.449-.117.347.347,0,0,1-.185-.281Z" transform="translate(528.178 250.883)" fill="#fff"/>
  </g>
</svg>
